<svg width="31" height="30" viewBox="0 0 31 30" fill="none" xmlns="http://www.w3.org/2000/svg">
<g clip-path="url(#clip0_2708_16711)">
<mask id="mask0_2708_16711" style="mask-type:luminance" maskUnits="userSpaceOnUse" x="0" y="0" width="31" height="30">
<path d="M30.5 0H0.5V30H30.5V0Z" fill="white"/>
</mask>
<g mask="url(#mask0_2708_16711)">
<path d="M9.99027 20.1099V11.9651H8.10742V9.87793H12.5884V20.1099H9.99027Z" fill="#F5F5F5"/>
<path d="M22.3518 12.5194C22.3518 13.4098 21.8702 14.1979 21.0674 14.6359C22.1912 15.1029 22.8918 16.0809 22.8918 17.2193C22.8918 19.0584 21.257 20.2261 18.7028 20.2261C16.1484 20.2261 14.5137 19.073 14.5137 17.2633C14.5137 16.0955 15.2727 15.1029 16.4549 14.6359C15.5938 14.1541 15.0392 13.3369 15.0392 12.4465C15.0392 10.8116 16.4697 9.77539 18.6882 9.77539C20.9359 9.77539 22.3518 10.8409 22.3518 12.5194ZM16.9658 17.0005C16.9658 17.8618 17.5789 18.3434 18.7028 18.3434C19.8267 18.3434 20.4543 17.8764 20.4543 17.0005C20.4543 16.154 19.8267 15.6721 18.7028 15.6721C17.5788 15.6721 16.9658 16.1539 16.9658 17.0005ZM17.2287 12.6654C17.2287 13.3954 17.754 13.8039 18.7028 13.8039C19.6515 13.8039 20.1769 13.3953 20.1769 12.6654C20.1769 11.9066 19.6515 11.4832 18.7028 11.4832C17.7539 11.4832 17.2287 11.9066 17.2287 12.6654Z" fill="#F5F5F5"/>
<path d="M27.216 11.0318C27.6479 12.3067 27.867 13.6401 27.867 15C27.867 21.8191 22.3191 27.367 15.5 27.367C8.68074 27.367 3.1328 21.8191 3.1328 15C3.1328 8.18074 8.68064 2.63308 15.4999 2.63308C16.86 2.63308 18.1934 2.85201 19.4681 3.28414V0.532015C18.1805 0.179071 16.8507 0 15.5 0C7.229 0 0.5 6.729 0.5 15C0.5 23.2711 7.229 30.0001 15.5 30.0001C23.7709 30.0001 30.4999 23.2711 30.4999 15C30.4999 13.6493 30.3209 12.3195 29.9679 11.0318H27.216Z" fill="#F5F5F5"/>
<path d="M26.4673 4.02364V1.14746H24.399V4.02364H21.54V6.09167H24.399V8.96778H26.4673V6.09167H29.3433V4.02364H26.4673Z" fill="#F5F5F5"/>
</g>
</g>
<defs>
<clipPath id="clip0_2708_16711">
<rect width="30" height="30" fill="white" transform="translate(0.5)"/>
</clipPath>
</defs>
</svg>
