<svg width="40" height="40" viewBox="0 0 40 40" fill="none" xmlns="http://www.w3.org/2000/svg">
<g clip-path="url(#clip0_3103_3225)">
<path d="M38.8246 3.98788L37.2245 0.631944C36.5149 0.251006 35.7069 0.0281939 34.847 0.0103033C31.706 -0.0552436 28.6647 0.191631 25.7694 0.760147L21.965 1.72046C17.1423 3.22437 12.8308 5.72718 9.27897 9.27905C5.72608 12.832 3.22287 17.1451 1.71912 21.9695L0.759122 25.7748C0.19131 28.6685 -0.0551747 31.708 0.010294 34.847C0.0282628 35.7065 0.250763 36.5141 0.631388 37.2235L3.98787 38.8246C14.0362 39.0343 23.0647 36.047 29.5558 29.5559C36.047 23.0647 39.0343 14.0362 38.8246 3.98788Z" fill="#966A5B"/>
<path d="M27.6034 13.309L13.3089 27.6035C13.0567 27.8557 12.6484 27.8555 12.3965 27.6035C12.1445 27.3516 12.1443 26.9433 12.3965 26.6911L26.691 12.3966C26.9432 12.1444 27.3515 12.1446 27.6034 12.3966C27.8554 12.6485 27.8556 13.0568 27.6034 13.309Z" fill="#F4DBB3"/>
<path d="M27.0078 17.4784C26.7556 17.7306 26.3474 17.7304 26.0954 17.4784L22.5216 13.9046C22.2696 13.6526 22.2694 13.2443 22.5216 12.9922C22.7738 12.74 23.182 12.7402 23.434 12.9922L27.0078 16.566C27.2598 16.8179 27.2599 17.2262 27.0078 17.4784Z" fill="#FAF5DC"/>
<path d="M24.6257 19.8606C24.3736 20.1128 23.9653 20.1126 23.7133 19.8606L20.1395 16.2868C19.8875 16.0348 19.8873 15.6265 20.1395 15.3744C20.3917 15.1222 20.8 15.1224 21.0519 15.3744L24.6257 18.9482C24.8777 19.2001 24.8779 19.6085 24.6257 19.8606Z" fill="#FAF5DC"/>
<path d="M22.2432 22.2432C21.991 22.4954 21.5827 22.4951 21.3308 22.2432L17.7569 18.6693C17.505 18.4174 17.5047 18.0091 17.7569 17.7569C18.0091 17.5047 18.4174 17.505 18.6693 17.7569L22.2432 21.3308C22.4951 21.5827 22.4954 21.991 22.2432 22.2432Z" fill="#FAF5DC"/>
<path d="M19.8606 24.6257C19.6084 24.8779 19.2001 24.8777 18.9482 24.6257L15.3744 21.0519C15.1224 20.8 15.1222 20.3917 15.3744 20.1395C15.6265 19.8873 16.0348 19.8875 16.2868 20.1395L19.8606 23.7133C20.1126 23.9653 20.1128 24.3736 19.8606 24.6257Z" fill="#FAF5DC"/>
<path d="M17.4784 27.0078C17.2262 27.26 16.8179 27.2598 16.566 27.0078L12.9922 23.434C12.7402 23.182 12.74 22.7738 12.9922 22.5216C13.2443 22.2694 13.6526 22.2696 13.9046 22.5216L17.4784 26.0954C17.7304 26.3474 17.7306 26.7556 17.4784 27.0078Z" fill="#FAF5DC"/>
<path d="M39.9897 5.15302C39.9488 3.19294 38.8416 1.50106 37.2246 0.63208C37.8559 11.4132 34.9245 21.157 28.0407 28.0409C21.1569 34.9247 11.4125 37.855 0.631348 37.2236C1.50041 38.8407 3.19283 39.949 5.15283 39.9898C8.29189 40.0553 11.3314 39.8088 14.2252 39.241L18.0303 38.2811C22.8547 36.7772 27.1678 34.274 30.7209 30.7211C34.2727 27.1693 36.7754 22.8578 38.2794 18.0352L39.24 14.2293C39.8085 11.3343 40.0553 8.29349 39.9897 5.15302Z" fill="#785353"/>
<path d="M1.71892 21.9695C1.33392 23.2048 1.01392 24.4765 0.759155 25.7747L11.536 36.5514L14.6192 36.9042L15.3449 35.5954L1.71892 21.9695Z" fill="#FAF5DC"/>
<path d="M36.5523 11.5431L25.7694 0.76001C24.4711 1.01478 23.2005 1.33579 21.9652 1.72071L35.5931 15.3486L37.1679 14.7851L36.5523 11.5431Z" fill="#FAF5DC"/>
<path d="M11.5359 36.5515L14.2253 39.2408C15.5235 38.9861 16.795 38.666 18.0303 38.281L15.3448 35.5955C14.1075 35.9801 12.8363 36.2974 11.5359 36.5515Z" fill="#F4DBB3"/>
<path d="M35.5931 15.3487L38.2795 18.0351C38.6645 16.7998 38.9853 15.5274 39.2401 14.2292L36.5525 11.5432C36.2983 12.8434 35.9779 14.1115 35.5931 15.3487Z" fill="#F4DBB3"/>
</g>
<defs>
<clipPath id="clip0_3103_3225">
<rect width="40" height="40" fill="white"/>
</clipPath>
</defs>
</svg>
