<svg width="20" height="20" viewBox="0 0 20 20" fill="none" xmlns="http://www.w3.org/2000/svg">
<path d="M11.149 2.5664C12.3393 1.0076 13.9942 1 13.9942 1C13.9942 1 14.2403 2.46554 13.0578 3.87732C11.7951 5.3848 10.3599 5.13812 10.3599 5.13812C10.3599 5.13812 10.0904 3.95255 11.149 2.5664ZM10.5113 6.16473C11.1237 6.16473 12.2602 5.32838 13.7396 5.32838C16.286 5.32838 17.2878 7.12868 17.2878 7.12868C17.2878 7.12868 15.3285 8.12397 15.3285 10.539C15.3285 13.2634 17.7692 14.2023 17.7692 14.2023C17.7692 14.2023 16.0631 18.9736 13.7585 18.9736C12.7001 18.9736 11.8772 18.2649 10.7619 18.2649C9.62539 18.2649 8.49755 19 7.76298 19C5.65858 19.0001 3 14.474 3 10.8358C3 7.25627 5.25032 5.37853 7.36102 5.37853C8.73317 5.37853 9.79797 6.16473 10.5113 6.16473Z" fill="white"/>
</svg>
