<svg width="88" height="24" viewBox="0 0 88 24" fill="none" xmlns="http://www.w3.org/2000/svg">
<path fill-rule="evenodd" clip-rule="evenodd" d="M57.4197 1.43729C59.4674 1.43729 61.0523 1.91345 62.0901 2.85329C63.0722 3.73745 63.6194 5.02769 63.6338 6.50129C63.6338 8.01617 63.1845 9.25073 62.2869 10.1762C61.1368 11.3685 59.3272 12.028 57.1951 12.028C56.8581 12.028 56.5211 12.0136 56.1986 11.9858V17.9896H53.0421V1.81553L53.5336 1.73105C54.8187 1.52926 56.1189 1.43102 57.4197 1.43729ZM57.2373 9.23633C58.4431 9.23633 60.4629 8.90033 60.4629 6.59921C60.4629 4.60721 58.8213 4.18673 57.4754 4.18673C56.9426 4.18673 56.5211 4.20017 56.213 4.24241V9.18065C56.4933 9.22193 56.8303 9.23633 57.2373 9.23633ZM1.2933 17.9906L6.9045 1.54961H10.1032L15.7288 17.9906H12.3611L10.7339 13.1935H6.1749L4.58994 17.9906H1.2933ZM6.98898 10.4575H9.9333L8.7141 6.88049C8.65266 6.71345 8.60178 6.55121 8.55186 6.39089C8.52306 6.29681 8.4933 6.20273 8.46162 6.10865C8.40882 6.28721 8.3493 6.46577 8.2869 6.64913L8.22354 6.83825L6.98898 10.4575Z" fill="#EFF1F3"/>
<path d="M19.5861 9.18061C19.5861 9.61553 19.7541 9.89585 21.269 10.4987C22.6581 11.0171 24.5234 11.9867 24.5234 14.3291C24.5234 16.6571 22.6437 18.2287 19.852 18.2287C18.6319 18.2287 17.3973 17.9195 16.4719 17.3723L16.0648 17.1343L16.9067 14.4827L17.5519 14.8619C18.0847 15.1845 19.0245 15.5493 19.8943 15.5493C20.4559 15.5493 21.3957 15.4226 21.3957 14.525C21.3957 14.0479 21.269 13.6552 19.7685 13.0946C18.2527 12.5474 16.4575 11.4664 16.4575 9.43309C16.4575 7.21549 18.2949 5.61709 20.8351 5.61709C21.9707 5.61709 23.093 5.89741 23.836 6.38893L24.2296 6.64141L23.3733 9.25069L22.7282 8.84365C22.151 8.48413 21.4862 8.28989 20.8063 8.28205C20.0479 8.28205 19.5861 8.61901 19.5861 9.18061ZM29.4751 3.00781L26.333 3.96205V5.84173H24.6357V8.54893H26.333V13.9221C26.333 15.4226 26.6277 16.4891 27.2594 17.2053C27.8767 17.8639 28.7877 18.2421 29.8543 18.2421C30.8085 18.2421 31.4959 18.0463 31.8184 17.9339L32.2389 17.7938L32.0709 15.0722L31.3413 15.2834C31.1301 15.3391 30.8786 15.3947 30.3592 15.3947C29.98 15.3947 29.4616 15.3947 29.4616 13.8655V8.54893H32.309V5.84173H29.4751V3.00781ZM39.4072 5.64493L39.9832 5.72941L39.9967 8.88589L39.2671 8.73229C39.1269 8.70349 38.9723 8.70349 38.7199 8.70349C37.6543 8.70349 36.868 9.48973 36.6299 10.7522C36.6011 10.9624 36.5733 11.2706 36.5733 11.5653V17.9906H33.389V9.85457C33.389 8.47885 33.3467 7.41325 33.2911 6.47341L33.2488 5.84173H36.1951L36.2373 6.72493C36.9381 6.01069 37.8501 5.60365 38.8466 5.60365C39.0703 5.60365 39.2392 5.61709 39.4072 5.64493Z" fill="#EFF1F3"/>
<path fill-rule="evenodd" clip-rule="evenodd" d="M45.7759 5.6167C42.2268 5.6167 39.7442 8.24038 39.7442 12.0132C39.7442 15.6891 42.1423 18.2417 45.5935 18.2417C48.5119 18.2417 51.6396 16.2353 51.6396 11.8308C51.654 8.1703 49.2405 5.6167 45.7759 5.6167ZM48.4274 11.9019C48.4274 14.0196 47.2773 15.5623 45.7058 15.5623C44.1343 15.5623 42.9986 14.034 42.9986 11.9575C42.9986 10.6107 43.5736 8.3239 45.748 8.3239C47.8658 8.29606 48.4274 10.6529 48.4274 11.9019ZM73.2991 14.7627V10.6673C73.2991 7.39846 71.6018 5.61766 68.5432 5.61766C67.1263 5.61766 65.6392 6.00934 64.6159 6.65446L64.2088 6.90694L65.0642 9.43174L65.7093 8.99782C66.3688 8.54854 67.3221 8.28166 68.2485 8.28166C68.8936 8.26822 69.3573 8.42278 69.6655 8.71654C69.918 8.96902 70.0725 9.34822 70.1282 9.82539C67.6456 9.89547 65.836 10.4849 64.7138 11.5927C63.942 12.3646 63.5493 13.3323 63.5493 14.4967C63.5493 16.362 64.8962 18.2417 67.5045 18.2417C68.6133 18.2417 69.652 17.8913 70.4652 17.274L70.5496 18.0036H73.565L73.4527 17.3163C73.3548 16.6433 73.2991 15.787 73.2991 14.7627ZM67.996 15.5767C67.5189 15.5767 66.7336 15.4087 66.7336 14.2721C66.7336 13.8372 66.8604 13.4868 67.1407 13.2199C67.5055 12.8551 68.333 12.4347 70.1839 12.4059V13.7115C70.1839 13.8094 70.1704 13.9774 70.1282 14.1454C69.9036 14.8049 69.2162 15.5758 67.997 15.5758L67.996 15.5767Z" fill="#EFF1F3"/>
<path d="M79.7512 12.6742L82.0658 5.8418H85.4325L82.1368 14.4559C80.7899 17.9906 79.7656 20.165 78.2229 21.5398C76.9317 22.6198 75.8095 22.8866 75.4869 22.9423L74.9685 23.0402L74.1544 20.3196L74.716 20.1372C74.9819 20.0671 75.628 19.8281 76.2587 19.2809L76.2731 19.2674C76.8338 18.8182 77.3954 18.0607 77.7736 17.261L77.7957 17.2054C77.8207 17.141 77.8504 17.0652 77.8725 17.023C77.8725 16.9942 77.8437 16.9106 77.7736 16.7705L77.7602 16.7417L73.4114 5.8418H76.876L79.4008 12.702C79.4709 12.8556 79.5275 13.0246 79.5832 13.1926C79.612 13.109 79.6399 13.0207 79.6677 12.9334L79.7512 12.6742Z" fill="#EFF1F3"/>
<path d="M12.9093 6.0662C14.957 3.97628 18.4351 2.72732 22.2088 2.72732C23.6815 2.72732 25.1128 2.90972 26.4732 3.28892L26.5855 3.31676L28.9989 2.58716L27.918 2.16668C25.8559 1.38044 23.4856 0.959961 21.0444 0.959961C17.4952 0.959961 14.1852 1.81532 11.7304 3.37244L11.4636 3.5414L12.4879 6.52796L12.9084 6.06524L12.9093 6.0662Z" fill="#EFF1F3"/>
</svg>
