<svg width="40" height="40" viewBox="0 0 40 40" fill="none" xmlns="http://www.w3.org/2000/svg">
<g clip-path="url(#clip0_3103_2557)">
<path d="M10.6582 15.3025C11.0693 16.4197 11.5537 17.4953 12.1252 18.4709C13.2695 18.0176 14.8695 17.5287 16.9503 17.2165C17.3051 16.2428 17.6173 15.0303 17.8302 13.5402C14.398 13.8563 12.0342 14.674 10.6582 15.3025Z" fill="#DD8858"/>
<path d="M13.641 14.2598C12.3689 14.5932 11.3781 14.9737 10.6582 15.3025C11.0693 16.4197 11.5537 17.4953 12.1252 18.4709C12.8798 18.172 13.8339 17.8579 14.992 17.5889C14.4496 16.5373 14.0049 15.4109 13.641 14.2598Z" fill="#CB6C35"/>
<path d="M18.1049 7.83875C13.6157 8.0357 10.6906 9.09867 9.1886 9.82187C9.39915 10.9354 9.6636 12.1037 9.9961 13.2663C11.4291 12.588 14.0777 11.6384 18.0512 11.3659C18.1197 10.3022 18.142 9.12976 18.1049 7.83875Z" fill="#DD8858"/>
<path d="M12.4284 8.65894C10.9978 9.03394 9.92274 9.46847 9.1886 9.8219C9.39915 10.9354 9.6636 12.1037 9.99618 13.2664C10.712 12.9275 11.7313 12.521 13.0674 12.165C12.787 10.972 12.5802 9.78511 12.4284 8.65894Z" fill="#CB6C35"/>
<path d="M17.674 2.51173C17.6606 2.40564 17.6555 2.30048 17.6572 2.19666C12.661 2.36939 9.54664 3.61455 8.12946 4.34509C8.36977 4.67619 8.52828 5.07962 8.57391 5.53431C8.64203 6.21283 8.7336 6.98923 8.85578 7.82845C10.2355 7.11713 13.225 5.91759 17.9946 5.69556C17.9219 4.69603 17.8168 3.63626 17.674 2.51173Z" fill="#DD8858"/>
<path d="M12.0245 2.9408C10.1957 3.38923 8.90664 3.94447 8.12946 4.34509C8.36977 4.67619 8.52828 5.07962 8.57391 5.53431C8.64203 6.21283 8.7336 6.98923 8.85578 7.82845C9.55219 7.46939 10.6594 6.98611 12.1979 6.56681C12.0721 5.11345 12.0322 3.85322 12.0245 2.9408Z" fill="#CB6C35"/>
<path d="M35.6026 4.02011C35.4158 2.96996 34.2951 2.23121 33.2316 2.3148C32.4254 2.37824 31.7559 2.86144 31.4154 3.53074C31.338 3.68292 31.1122 3.64964 31.0816 3.48167C31.0597 3.36113 31.0379 3.24535 31.0163 3.13449C30.8127 2.08746 29.6804 1.36667 28.6184 1.4673C27.8795 1.5373 27.2018 1.98644 26.8431 2.60191C26.7607 2.74324 26.5455 2.70285 26.5156 2.54199C26.5 2.45753 26.4844 2.3755 26.4689 2.29613C26.2653 1.2491 25.133 0.528315 24.071 0.62894C23.3427 0.697925 22.6744 1.13535 22.312 1.73714C22.2266 1.87886 22.0138 1.84457 21.9822 1.68214C21.9818 1.68035 21.9815 1.67847 21.9811 1.67667C21.8445 0.974331 21.2899 0.419331 20.6192 0.160034C19.9707 0.559097 19.5919 1.30714 19.7005 2.16105C20.9533 12.0068 19.4234 16.9976 18.0163 19.1409C17.432 20.0308 16.2932 20.2353 15.4525 19.7533C14.6088 20.4213 13.3109 20.2753 12.6644 19.3116C9.99219 15.3282 9.01742 9.09183 8.66781 5.53441C8.57758 4.61636 8.03805 3.90652 7.29477 3.5816C6.53125 4.02558 6.06328 4.89246 6.12633 5.81628C6.43133 10.2852 7.67336 21.2287 12.6702 28.8696C13.753 30.5256 14.5409 32.3562 14.9744 34.2823C16.6692 35.086 18.6496 35.7321 20.7848 35.8674C24.5779 36.1076 27.915 35.0252 30.0051 34.1035C30.2549 33.0607 30.5398 32.2037 31.0945 31.1743C38.0734 18.2206 35.6026 4.02011 35.6026 4.02011Z" fill="#E39B74"/>
<path d="M15.1498 34.3648C14.7205 32.4161 13.9248 30.5643 12.8265 28.8913C7.82969 21.2805 6.58758 10.38 6.28258 5.92866C6.21844 4.99249 6.7032 4.11389 7.49047 3.67905C7.00359 3.40757 6.40914 3.31186 5.78758 3.45108C4.65687 3.70429 3.8993 4.77265 3.97851 5.92866C4.28351 10.3799 5.52562 21.2804 10.5223 28.8912C11.3331 30.1262 11.978 31.4587 12.4334 32.8555C13.2226 33.3694 14.137 33.8967 15.1498 34.3648Z" fill="#DD8858"/>
<path d="M18.1725 19.297C19.5796 17.1537 21.1095 12.1629 19.8567 2.31716C19.7435 1.42748 20.1587 0.651538 20.8576 0.266773C20.467 0.0654447 20.0192 -0.0319772 19.5832 0.00935096C18.3039 0.00935096 17.3911 1.0481 17.5526 2.31716C18.8054 12.1629 17.2755 17.1537 15.8684 19.297C15.7405 19.4916 15.5858 19.6527 15.4138 19.7819C16.2644 20.4202 17.5418 20.2578 18.1725 19.297Z" fill="#DD8858"/>
<path d="M10.6777 5.79019C10.9499 5.59761 11.3265 5.66198 11.5192 5.93409L13.5545 8.80925C13.7471 9.08136 13.6827 9.45808 13.4106 9.65073C13.3047 9.72573 13.183 9.76175 13.0623 9.76175C12.8731 9.76175 12.6868 9.673 12.5691 9.50683L10.5338 6.63167C10.3412 6.35956 10.4056 5.98284 10.6777 5.79019Z" fill="#924D24"/>
<path d="M16.8955 9.13403C16.7896 9.20903 16.6678 9.24505 16.5472 9.24505C16.358 9.24505 16.1717 9.1563 16.054 8.99012L13.8809 5.92028C13.6883 5.64817 13.7527 5.27145 14.0248 5.0788C14.297 4.88614 14.6736 4.95059 14.8663 5.2227L17.0394 8.29255C17.232 8.56466 17.1676 8.94137 16.8955 9.13403Z" fill="#924D24"/>
<path d="M11.0597 11.5789C11.3319 11.3863 11.7085 11.4507 11.9012 11.7228L14.0744 14.7927C14.2669 15.0649 14.2026 15.4416 13.9305 15.6342C13.8245 15.7092 13.7028 15.7452 13.5822 15.7452C13.393 15.7452 13.2066 15.6565 13.089 15.4903L10.9158 12.4204C10.7232 12.1482 10.7877 11.7715 11.0597 11.5789Z" fill="#924D24"/>
<path d="M13.9297 10.8216C14.2018 10.629 14.5785 10.6934 14.7712 10.9655L16.9443 14.0354C17.1369 14.3075 17.0725 14.6842 16.8004 14.8769C16.6945 14.9518 16.5727 14.9879 16.4521 14.9879C16.2629 14.9879 16.0766 14.8992 15.9589 14.733L13.7858 11.663C13.5932 11.3909 13.6576 11.0142 13.9297 10.8216Z" fill="#924D24"/>
<path d="M21.238 13.7583C21.4603 13.7391 21.6851 13.7288 21.9123 13.7288C22.0998 13.7288 22.2857 13.7359 22.4699 13.749C23.3491 8.76048 22.978 3.33462 22.7728 1.19392C22.591 1.35142 22.4338 1.53462 22.3119 1.73704C22.2266 1.87876 22.0137 1.84438 21.9822 1.68204C21.9818 1.68024 21.9815 1.67837 21.9811 1.67657C21.9141 1.33243 21.7465 1.02384 21.5144 0.767822C21.6747 2.28188 22.2191 8.39212 21.238 13.7583Z" fill="#DD8858"/>
<path d="M25.5103 14.6113C25.903 14.8169 26.2758 15.0551 26.6253 15.3224C27.4476 10.174 27.3336 4.30974 27.2506 2.09403C27.0903 2.24419 26.9518 2.41521 26.843 2.60185C26.7607 2.74317 26.5455 2.70278 26.5156 2.54192C26.5 2.45747 26.4844 2.37544 26.4689 2.29606C26.4029 1.95653 26.2388 1.65169 26.0116 1.39771C26.0609 2.40778 26.3337 8.93028 25.5103 14.6113Z" fill="#DD8858"/>
<path d="M30.5832 2.28455C30.5829 2.27728 30.5835 2.27025 30.5834 2.26306C30.7981 2.5115 30.9526 2.80697 31.0163 3.13431C31.0378 3.24517 31.0596 3.36095 31.0816 3.4815C31.1122 3.64947 31.338 3.68275 31.4153 3.53056C31.5188 3.32728 31.6529 3.1415 31.8116 2.97908C31.8716 5.43869 31.9532 13.3566 30.7113 18.2766C30.6422 18.5502 30.3963 18.7327 30.1264 18.7327C30.0775 18.7327 30.0278 18.7267 29.9783 18.7142C29.655 18.6326 29.4591 18.3044 29.5407 17.9812C30.9514 12.3929 30.5871 2.38494 30.5832 2.28455Z" fill="#DD8858"/>
<path d="M20.6083 3.1629C20.8093 2.89704 21.1878 2.84431 21.4539 3.04532L22.2879 3.67571L23.122 3.04532C23.3879 2.84431 23.7665 2.89696 23.9675 3.1629C24.1685 3.42884 24.1159 3.80743 23.85 4.00845L23.2891 4.43236L23.85 4.85626C24.1159 5.05728 24.1685 5.43587 23.9675 5.70181C23.8489 5.85884 23.6682 5.9415 23.4855 5.9415C23.3588 5.9415 23.2309 5.90173 23.122 5.81939L22.2879 5.189L21.4539 5.81939C21.345 5.90173 21.2171 5.9415 21.0903 5.9415C20.9076 5.9415 20.727 5.85884 20.6083 5.70181C20.4073 5.43587 20.46 5.05728 20.7259 4.85626L21.2867 4.43236L20.7259 4.00845C20.46 3.80743 20.4073 3.42892 20.6083 3.1629Z" fill="#924D24"/>
<path d="M25.0308 4.1078C25.2317 3.84194 25.6104 3.78913 25.8763 3.99014L26.7104 4.62053L27.5445 3.99014C27.8106 3.78913 28.1891 3.84178 28.39 4.1078C28.591 4.37374 28.5384 4.75225 28.2724 4.95327L27.7114 5.37717L28.2724 5.80108C28.5383 6.0021 28.5909 6.38069 28.39 6.64655C28.2713 6.80358 28.0908 6.88624 27.908 6.88624C27.7813 6.88624 27.6534 6.84647 27.5445 6.76413L26.7104 6.13374L25.8763 6.76413C25.7674 6.84647 25.6395 6.88624 25.5128 6.88624C25.3301 6.88624 25.1495 6.80358 25.0308 6.64655C24.8298 6.38061 24.8824 6.0021 25.1484 5.80108L25.7094 5.37717L25.1484 4.95327C24.8825 4.75233 24.8298 4.37374 25.0308 4.1078Z" fill="#924D24"/>
<path d="M29.5751 5.20746C29.776 4.9416 30.1546 4.88886 30.4207 5.08988L31.2547 5.72027L32.0888 5.08988C32.3547 4.88886 32.7333 4.94152 32.9343 5.20746C33.1353 5.4734 33.0827 5.85199 32.8168 6.053L32.2559 6.47691L32.8168 6.90082C33.0827 7.10183 33.1353 7.48043 32.9343 7.74636C32.8157 7.9034 32.6351 7.98605 32.4523 7.98605C32.3256 7.98605 32.1977 7.94629 32.0888 7.86394L31.2547 7.23363L30.4207 7.86402C30.3118 7.94636 30.1839 7.98613 30.0571 7.98613C29.8744 7.98613 29.6938 7.90347 29.5751 7.74644C29.3741 7.4805 29.4268 7.10191 29.6927 6.9009L30.2535 6.47699L29.6927 6.05308C29.4268 5.85199 29.3741 5.47347 29.5751 5.20746Z" fill="#924D24"/>
<path d="M20.8035 35.7058C17.3295 35.4858 14.284 33.8464 12.2929 32.4633C12.6129 33.3686 12.8533 34.3026 13.0063 35.2554C13.0874 35.7602 13.1541 36.2927 13.1985 36.8466C13.2806 37.8722 13.96 38.7511 14.9317 39.0895C16.1987 39.5308 18.1967 40.0001 20.9643 40.0001C24.2791 40.0001 26.7031 39.125 28.032 38.4854C28.7542 38.1379 29.2745 37.4761 29.4417 36.6924L29.9801 34.1699C30.006 34.0486 30.0344 33.928 30.0643 33.8078C28.1287 34.7208 24.7207 35.9538 20.8035 35.7058Z" fill="#DD8858"/>
<path d="M14.9404 39.0894C15.4256 39.2584 15.9274 39.4002 16.4385 39.5181C15.9094 39.077 15.5683 38.4357 15.5118 37.732V37.7318V37.7317C15.4683 37.1896 15.4015 35.7628 15.3175 35.2418C15.2561 34.8612 15.1796 34.484 15.0907 34.1103C14.0249 33.5914 13.0825 33.0111 12.302 32.4695C12.7736 33.8009 13.0744 35.1822 13.2076 36.8464V36.8466C13.2891 37.8624 13.9631 38.749 14.9404 39.0894Z" fill="#CB6C35"/>
<path d="M27.3991 26.746C30.4319 23.7132 30.432 18.7961 27.3991 15.7632C24.3663 12.7304 19.4491 12.7304 16.4163 15.7632C13.3835 18.7961 13.3835 23.7132 16.4163 26.746C19.4491 29.7789 24.3663 29.7789 27.3991 26.746Z" fill="#F6F9F9"/>
<path d="M18.276 21.2546C18.276 17.6802 20.6907 14.6702 23.9777 13.7656C23.32 13.5846 22.6275 13.4874 21.9123 13.4874C17.6226 13.4874 14.1451 16.9649 14.1451 21.2546C14.1451 25.5443 17.6226 29.0218 21.9123 29.0218C22.6275 29.0218 23.32 28.9246 23.9777 28.7436C20.6908 27.8391 18.276 24.8291 18.276 21.2546Z" fill="#E7ECF1"/>
<path d="M27.756 16.1383C27.4904 15.8352 27.2017 15.5531 26.8925 15.2944C25.2838 16.8803 24.3981 18.9953 24.3981 21.2546C24.3981 23.5139 25.2839 25.6289 26.8926 27.2147C27.2017 26.9561 27.4905 26.6739 27.756 26.3708C26.3692 25.0119 25.6053 23.1954 25.6053 21.2546C25.6053 19.3137 26.3691 17.4972 27.756 16.1383Z" fill="#DAE4EA"/>
<path d="M16.0687 16.1382C17.4556 17.4971 18.2194 19.3137 18.2194 21.2546C18.2194 23.1954 17.4556 25.012 16.0688 26.3709C16.3344 26.674 16.6231 26.9561 16.9322 27.2147C18.5409 25.629 19.4267 23.514 19.4267 21.2546C19.4267 18.9952 18.5409 16.8801 16.9322 15.2944C16.623 15.553 16.3343 15.8351 16.0687 16.1382Z" fill="#DAE4EA"/>
<path d="M25.6917 21.8583H24.3115C23.9781 21.8583 23.7079 21.5881 23.7079 21.2547C23.7079 20.9213 23.9781 20.6511 24.3115 20.6511H25.6917C26.0251 20.6511 26.2953 20.9214 26.2953 21.2547C26.2954 21.5881 26.0251 21.8583 25.6917 21.8583Z" fill="#FF636E"/>
<path d="M24.0169 23.6016C23.9306 23.2796 24.1217 22.9486 24.4437 22.8623L25.7769 22.5051C26.0989 22.4187 26.4299 22.6099 26.5162 22.9319C26.6025 23.254 26.4114 23.585 26.0894 23.6712L24.7562 24.0284C24.4355 24.1147 24.1034 23.9247 24.0169 23.6016Z" fill="#FF636E"/>
<path d="M24.9228 25.7887C24.7561 25.5001 24.855 25.1308 25.1437 24.9642L26.339 24.274C26.6276 24.1075 26.9969 24.2062 27.1636 24.495C27.3303 24.7837 27.2314 25.1529 26.9426 25.3195L25.7473 26.0097C25.459 26.1762 25.0897 26.0778 24.9228 25.7887Z" fill="#FF636E"/>
<path d="M26.3391 18.235L25.1438 17.5449C24.8551 17.3782 24.7561 17.0091 24.9228 16.7204C25.0895 16.4316 25.4587 16.3327 25.7474 16.4995L26.9427 17.1895C27.2314 17.3563 27.3303 17.7254 27.1636 18.0141C26.997 18.3027 26.6278 18.4016 26.3391 18.235Z" fill="#FF636E"/>
<path d="M25.7769 20.0041L24.4437 19.6469C24.1217 19.5606 23.9306 19.2296 24.0169 18.9076C24.1032 18.5855 24.4345 18.3942 24.7562 18.4808L26.0894 18.838C26.4114 18.9242 26.6025 19.2552 26.5162 19.5773C26.4296 19.9004 26.0974 20.0903 25.7769 20.0041Z" fill="#FF636E"/>
<path d="M19.5131 21.8583H18.1329C17.7995 21.8583 17.5293 21.5881 17.5293 21.2547C17.5293 20.9213 17.7995 20.6511 18.1329 20.6511H19.5131C19.8465 20.6511 20.1167 20.9214 20.1167 21.2547C20.1168 21.5881 19.8465 21.8583 19.5131 21.8583Z" fill="#FF636E"/>
<path d="M19.0685 24.0284L17.7353 23.6712C17.4133 23.5849 17.2222 23.2539 17.3084 22.9319C17.3948 22.6098 17.7262 22.4188 18.0477 22.5051L19.3809 22.8623C19.703 22.9485 19.894 23.2795 19.8078 23.6016C19.7212 23.9247 19.389 24.1146 19.0685 24.0284Z" fill="#FF636E"/>
<path d="M18.0773 26.0097L16.882 25.3195C16.5932 25.1528 16.4943 24.7837 16.661 24.495C16.8277 24.2063 17.1968 24.1074 17.4855 24.2741L18.6809 24.9642C18.9696 25.1309 19.0685 25.5001 18.9018 25.7888C18.7352 26.0774 18.3661 26.1764 18.0773 26.0097Z" fill="#FF636E"/>
<path d="M16.661 18.0141C16.4943 17.7254 16.5933 17.3562 16.8819 17.1896L18.0772 16.4995C18.3659 16.3329 18.7351 16.4317 18.9018 16.7205C19.0685 17.0092 18.9695 17.3784 18.6808 17.545L17.4855 18.2351C17.1968 18.4018 16.8276 18.3028 16.661 18.0141Z" fill="#FF636E"/>
<path d="M17.3084 19.5772C17.2222 19.2552 17.4133 18.9242 17.7353 18.8379L19.0685 18.4807C19.3903 18.3943 19.7215 18.5855 19.8078 18.9075C19.894 19.2296 19.703 19.5606 19.3809 19.6468L18.0477 20.004C17.7271 20.0903 17.3951 19.9003 17.3084 19.5772Z" fill="#FF636E"/>
</g>
<defs>
<clipPath id="clip0_3103_2557">
<rect width="40" height="40" fill="white"/>
</clipPath>
</defs>
</svg>
