<svg width="40" height="40" viewBox="0 0 40 40" fill="none" xmlns="http://www.w3.org/2000/svg">
<g clip-path="url(#clip0_3103_1734)">
<path d="M39.3181 14.8422L38.9452 13.607C37.4188 9.07499 34.4086 5.43305 30.6244 3.06165L29.5028 2.40821C25.1586 0.0618084 19.9517 -0.685143 14.8421 0.682276L13.6075 1.05501C11.1372 1.88688 8.93132 3.15961 7.05148 4.75828C1.17876 9.75241 -0.573429 17.7997 1.79696 25.6514C4.98836 36.223 14.8972 41.9027 25.4688 38.7113C29.2792 37.561 32.8033 35.8063 35.2067 32.9867C36.1507 31.8791 36.9697 30.6736 37.6506 29.3945L38.2303 28.2136C40.0639 24.1482 40.5528 19.4554 39.3181 14.8422Z" fill="#FFA95F"/>
<path d="M28.0362 36.8845C17.4645 40.0759 6.30743 34.0931 3.11602 23.5216C1.07501 16.7607 2.78743 9.76135 7.05149 4.7583C5.1043 6.41408 3.50688 8.41963 2.3279 10.6471L1.75266 11.8251C-0.0669447 15.8817 -0.548976 20.5595 0.681883 25.1585L1.05477 26.3938C2.57743 30.9146 5.57626 34.5495 9.34712 36.921L10.4681 37.5765C14.8191 39.9358 20.0395 40.6887 25.1618 39.3167L26.3962 38.9438C29.9371 37.7506 32.9343 35.6531 35.2067 32.9868C33.1726 34.7166 30.7557 36.0635 28.0362 36.8845Z" fill="#FF8B5A"/>
<path d="M30.0798 17.6313L39.3176 14.8424C39.262 14.635 39.2041 14.4289 39.1416 14.2219C39.079 14.0147 39.0133 13.8108 38.9446 13.6072L29.7067 16.3961C28.5196 11.9685 28.8428 7.28129 30.6242 3.06207C30.2571 2.83207 29.8838 2.61402 29.5028 2.40824C27.5462 6.94481 27.1831 11.9976 28.4721 16.7689L20.4328 19.1958L14.8422 0.682617C14.6346 0.738086 14.4286 0.796445 14.2215 0.858945C14.0146 0.921367 13.8109 0.986758 13.6076 1.05527L19.1982 19.5685L11.1638 21.9939C9.72243 17.6919 6.9804 13.97 3.32079 11.3237L2.67094 11.8266L2.92079 12.6469C6.17149 15.1065 8.61798 18.4799 9.92907 22.3668L3.38352 24.3427L3.16415 25.1827L3.84798 25.5502L10.3024 23.6017C11.2066 26.9715 11.2279 30.4899 10.3894 33.8348L10.8399 34.6L11.5191 34.609C12.5356 30.903 12.5509 26.9788 11.537 23.2289L19.5712 20.8035L24.6429 37.5981L25.332 38.0764L25.9299 37.3989L20.8058 20.4307L28.845 18.0038C30.4122 22.6918 33.5099 26.6987 37.6506 29.3943C37.8564 29.0074 38.05 28.613 38.2303 28.2134C34.4136 25.6852 31.5411 21.9755 30.0798 17.6313Z" fill="#785353"/>
<path d="M1.75235 11.8249C2.15508 12.0881 2.53962 12.3581 2.92079 12.647C3.03813 12.203 3.17368 11.7575 3.32079 11.3238C2.99352 11.0867 2.66954 10.8664 2.32782 10.647C2.12329 11.0335 1.93141 11.4257 1.75235 11.8249Z" fill="#6E4848"/>
<path d="M1.055 26.3936L3.84797 25.5503C3.6811 25.1554 3.52649 24.7527 3.38344 24.3428L0.682114 25.1585C0.737661 25.3661 0.79602 25.5718 0.858598 25.779C0.921098 25.9861 0.98641 26.1901 1.055 26.3936Z" fill="#6E4848"/>
<path d="M25.9299 37.399C25.5003 37.4799 25.072 37.5462 24.6429 37.5983L25.1618 39.3166C25.368 39.2615 25.5729 39.204 25.7786 39.1419C25.9869 39.079 26.1915 39.0128 26.3962 38.9438L25.9299 37.399Z" fill="#6E4848"/>
<path d="M10.3894 33.8348C10.1268 34.8829 9.77787 35.9169 9.34717 36.9209C9.71389 37.1515 10.0875 37.3699 10.4681 37.5763C10.8928 36.6069 11.2426 35.6187 11.5193 34.6091C11.1343 34.3641 10.7572 34.1059 10.3894 33.8348Z" fill="#6E4848"/>
</g>
<defs>
<clipPath id="clip0_3103_1734">
<rect width="40" height="40" fill="white"/>
</clipPath>
</defs>
</svg>
