<svg width="27" height="24" viewBox="0 0 27 24" fill="none" xmlns="http://www.w3.org/2000/svg">
<g clip-path="url(#clip0_2708_16695)">
<mask id="mask0_2708_16695" style="mask-type:luminance" maskUnits="userSpaceOnUse" x="0" y="0" width="27" height="24">
<path d="M26.6667 0H0V24H26.6667V0Z" fill="white"/>
</mask>
<g mask="url(#mask0_2708_16695)">
<path fill-rule="evenodd" clip-rule="evenodd" d="M10.4133 23.64C17.1067 25.244 23.8827 21.332 25.5507 14.9027C27.22 8.47471 23.148 1.96137 16.456 0.360037C9.76529 -1.24396 2.98663 2.66937 1.31996 9.09871C-0.349369 15.5253 3.72396 22.0387 10.4133 23.6413V23.64ZM16.196 7.26271C17.9267 7.83604 19.192 8.69337 18.9427 10.2894C18.7627 11.4587 18.0893 12.0254 17.1933 12.2227C18.4227 12.8387 19.0493 13.7827 18.452 15.416C17.7133 17.4467 15.956 17.6187 13.6187 17.1933L13.052 19.3773L11.6813 19.0493L12.2413 16.8947C11.8759 16.8079 11.5115 16.7172 11.148 16.6227L10.588 18.7867L9.21863 18.4587L9.78529 16.272L9.39863 16.1747L8.80796 16.028L7.02529 15.6013L7.70529 14.0947C7.70529 14.0947 8.71463 14.3533 8.70129 14.3347C9.08796 14.4253 9.26129 14.1827 9.32929 14.0213L10.2253 10.568L10.324 10.592L10.3706 10.604C10.3241 10.5863 10.2764 10.5717 10.228 10.56L10.868 8.09604C10.884 7.81604 10.784 7.46271 10.228 7.32937C10.2506 7.31604 9.23329 7.09204 9.23329 7.09204L9.59729 5.68537L11.488 6.13871L11.4866 6.14537C11.7706 6.21337 12.0626 6.27871 12.3613 6.34404L12.9226 4.18137L14.2933 4.50937L13.7427 6.62937C14.1107 6.70937 14.48 6.79071 14.84 6.87737L15.3867 4.77071L16.7573 5.10004L16.196 7.26271ZM11.8626 15.104C12.98 15.388 15.4227 16.008 15.812 14.508C16.2107 12.9747 13.84 12.464 12.684 12.2147L12.3466 12.14L11.5946 15.0373L11.8626 15.104ZM16.236 10.2667C15.8813 11.6307 13.8467 11.1094 12.916 10.8707L12.6893 10.8134L13.372 8.18537C13.4507 8.20404 13.5453 8.22404 13.6547 8.24671C14.62 8.45204 16.5973 8.87337 16.2347 10.2667H16.236Z" fill="#EFF1F3"/>
</g>
</g>
<defs>
<clipPath id="clip0_2708_16695">
<rect width="26.6667" height="24" fill="white"/>
</clipPath>
</defs>
</svg>
