<svg width="40" height="40" viewBox="0 0 40 40" fill="none" xmlns="http://www.w3.org/2000/svg">
<path d="M23.8613 35.3361H31.5824L33.1921 35.2556C33.7289 35.2556 34.1642 34.9009 34.1642 34.364V32.0341H22.8892V34.364C22.8892 34.9009 23.3244 35.3361 23.8613 35.3361Z" fill="#FD4754"/>
<path d="M32.5544 32.8389V34.364C32.5544 34.9009 32.1192 35.3361 31.5823 35.3361H33.9969C34.5337 35.3361 34.969 34.9009 34.969 34.364V32.8389L33.7627 32.0341L32.5544 32.8389Z" fill="#E50058"/>
<path d="M35.1687 26.0116V31.8667C35.1687 32.4035 34.7341 32.7584 34.1973 32.7584L32.5876 32.8389H25.5059L24.9023 32.0341L24.2987 32.8389H22.8548C22.318 32.8389 21.8826 32.4035 21.8826 31.8666V26.0115H35.1687V26.0116Z" fill="#F2F6FC"/>
<path d="M33.5594 26.8163V31.8668C33.5594 32.4037 33.1242 32.8389 32.5873 32.8389H35.0019C35.5387 32.8389 35.974 32.4037 35.974 31.8668V26.8163L35.1691 26.0115L33.5594 26.8163Z" fill="#CDD2E1"/>
<path d="M25.5059 26.8076V32.839H24.2986V26.8076C24.2986 26.4744 24.569 26.204 24.9022 26.204C25.2355 26.2039 25.5059 26.4744 25.5059 26.8076Z" fill="#FD4754"/>
<path d="M15.2295 35.1216L13.6198 35.158H5.96438C5.43102 35.158 4.9986 34.7256 4.9986 34.1923V31.8533H16.1953V34.1923C16.1953 34.7257 15.763 35.1216 15.2295 35.1216Z" fill="#FD4754"/>
<path d="M14.5857 32.658V34.1922C14.5857 34.7256 14.1533 35.158 13.6199 35.158H16.0345C16.5678 35.158 17.0002 34.7256 17.0002 34.1922V32.658L15.815 31.8531L14.5857 32.658Z" fill="#E50058"/>
<path d="M17.1952 25.8683V31.6904C17.1952 32.224 16.763 32.5757 16.2295 32.5757L14.5857 32.6562H4.96578C4.43219 32.6562 4 32.224 4 31.6904V30.2184L4.80484 29.6148L4 29.0112V25.8683H17.1952Z" fill="#F2F6FC"/>
<path d="M15.5857 26.6729V31.6907C15.5857 32.2241 15.1533 32.6565 14.6199 32.6565H17.0345C17.5678 32.6565 18.0002 32.2241 18.0002 31.6907V26.6729L17.0002 25.868L15.5857 26.6729Z" fill="#CDD2E1"/>
<path d="M12.854 29.6148C12.854 29.9488 12.5836 30.2184 12.2504 30.2184H4V29.0111H12.2503C12.5835 29.0112 12.854 29.2816 12.854 29.6148Z" fill="#FD4754"/>
<path d="M21.1952 10.6481V18.6658C21.1952 20.24 20.825 21.7693 20.1393 23.1407C19.4544 24.5121 18.4548 25.6469 17.1952 26.5926L15.5857 26.6731H4C1.54773 25.4409 0 22.9322 0 20.1878V17.6638C0 16.8815 0.300234 16.1072 0.791172 15.5246C1.04305 15.2243 1.34648 15.7805 1.68453 15.6059C1.8632 15.5133 1.98391 14.5331 1.99844 14.335C1.99922 14.3214 2.00008 10.6481 2.00008 10.6481C2.00008 7.34262 4.67938 4.66418 7.98398 4.66418H13.6019L15.2113 4.68895C18.5159 4.68895 21.1952 7.34262 21.1952 10.6481Z" fill="#FD4754"/>
<path d="M17.7324 4.91358C17.7322 4.91351 17.732 4.91351 17.732 4.91343C17.1885 4.75108 16.6126 4.66382 16.0163 4.66382H13.6018C14.6631 4.66382 15.6599 4.94015 16.5242 5.42476C16.8061 5.58288 16.897 5.94397 16.7253 6.21788C15.9124 7.51452 15.442 9.04671 15.442 10.6867V18.7569C15.442 20.8897 15.9977 22.9708 17.0102 24.8028C17.1267 25.0134 17.0979 25.2759 16.9348 25.4529C16.5265 25.8959 16.0757 26.3047 15.5856 26.6728H18.0001C20.5184 24.7812 22.0001 21.8152 22.0001 18.6657V10.6477C22.0002 7.93937 20.2009 5.65124 17.7324 4.91358Z" fill="#E50058"/>
<path d="M39.1953 17.7484V20.2893C39.1953 23.0507 37.6372 25.4965 35.1687 26.736L33.5591 26.8165H30.0016L28.7662 26.0116L27.5016 26.8165H21.8826C20.615 25.8643 19.6089 24.6418 18.9192 23.2615C18.2295 21.8804 17.8569 20.3416 17.8569 18.7569V10.6868C17.8569 7.36036 20.553 4.66418 23.8795 4.66418H29.5495L31.1592 4.69715C34.4855 4.69715 37.1826 7.36036 37.1826 10.6867V14.7293C37.5423 14.8565 37.8699 15.0657 38.1524 15.3322C38.7913 15.9367 39.1953 16.8365 39.1953 17.7484Z" fill="#FD4754"/>
<path d="M37.1821 14.3597L37.987 14.125V10.6868C37.987 7.3605 35.2904 4.66394 31.9641 4.66394H29.5496C32.8759 4.66394 35.5724 7.36042 35.5724 10.6868V14.3596C35.5724 14.5749 35.697 14.7673 35.8885 14.8657C36.8932 15.3823 37.5854 16.5554 37.5854 17.7486V20.2889C37.5854 23.0509 36.0275 25.5767 33.5593 26.8162H35.9739C38.4421 25.5768 40 23.051 40 20.289V17.7487C40 16.8369 39.5958 15.9368 38.9568 15.3325C38.7596 15.146 37.7352 14.9876 37.4982 14.8658C37.3068 14.7674 37.1821 14.575 37.1821 14.3597Z" fill="#E50058"/>
<path d="M30.0016 26.8163H27.5016V21.7186C27.5016 21.0282 28.0613 20.4686 28.7516 20.4686C29.442 20.4686 30.0016 21.0282 30.0016 21.7186V26.8163Z" fill="#C4186A"/>
<path d="M4.99886 19.6638C4.99886 19.997 4.72846 20.2674 4.39526 20.2674C2.40815 20.2674 0.791199 18.6513 0.791199 16.6642V15.5246C1.04307 15.2244 1.34651 14.9757 1.68456 14.8011C1.86323 14.7085 1.98393 14.5331 1.99846 14.3351V16.6643C1.99846 17.985 3.0737 19.0603 4.39526 19.0603C4.72839 19.0602 4.99886 19.3306 4.99886 19.6638Z" fill="#E50058"/>
<path d="M36.5772 19.762C36.5772 20.0952 36.3076 20.3656 35.9736 20.3656H34.4686C33.634 20.3656 32.8493 20.0405 32.2601 19.4498C31.6976 18.8864 31.3765 18.1459 31.349 17.3548H24.9265C22.3607 17.3548 20.2721 15.267 20.2721 12.7004C20.2721 12.3672 20.5425 12.0968 20.8757 12.0968C21.2097 12.0968 21.4793 12.3673 21.4793 12.7004C21.4793 14.6014 23.0262 16.1475 24.9264 16.1475H31.5462C31.9912 14.966 33.1333 14.1234 34.4677 14.1234H34.4701L35.5725 14.124L37.1825 14.7294C37.5423 14.8566 36.5414 15.3315 36.5414 15.3315L34.4694 15.3306H34.4687C33.5463 15.3306 32.7737 15.9873 32.5942 16.8573C32.5926 16.8654 32.591 16.8727 32.5894 16.8807C32.5669 16.9974 32.5548 17.1181 32.5548 17.2421C32.554 17.754 32.7527 18.2345 33.1141 18.5966C33.4755 18.9588 33.9568 19.1584 34.4687 19.1584H35.9737C36.3076 19.1584 36.5772 19.4281 36.5772 19.762Z" fill="#E50058"/>
<path d="M37.987 14.3597V14.1248L35.5724 14.1239V14.3596C35.5724 14.5748 35.6971 14.7673 35.8885 14.8657C36.1251 14.9873 36.3444 15.1454 36.5414 15.3316L38.9568 15.3325C38.7596 15.1459 38.54 14.9876 38.3031 14.8658C38.1117 14.7673 37.987 14.5749 37.987 14.3597Z" fill="#C4186A"/>
<path d="M30.7647 22.1776H26.7386C26.4052 22.1776 26.135 22.4478 26.135 22.7812C26.135 23.1146 26.4052 23.3848 26.7386 23.3848H30.7647C31.0981 23.3848 31.3683 23.1146 31.3683 22.7812C31.3683 22.4478 31.0981 22.1776 30.7647 22.1776Z" fill="#E50058"/>
<path d="M30.7647 24.1907H26.7386C26.4052 24.1907 26.135 24.4609 26.135 24.7943C26.135 25.1276 26.4052 25.3979 26.7386 25.3979H30.7647C31.0981 25.3979 31.3683 25.1276 31.3683 24.7943C31.3683 24.4609 31.0981 24.1907 30.7647 24.1907Z" fill="#E50058"/>
</svg>
