<svg width="40" height="40" viewBox="0 0 40 40" fill="none" xmlns="http://www.w3.org/2000/svg">
<g clip-path="url(#clip0_3103_1284)">
<path d="M33.2749 22.7613L33.0172 20.9598H27.3107L27.1373 22.7613L25.9777 32.8713L26.615 34.6634H34.0221L34.4337 32.8713L33.2749 22.7613Z" fill="#A79BA7"/>
<path d="M34.2944 31.6558H29.8166C29.2361 31.6558 28.7851 31.1502 28.8513 30.5733L29.5091 24.8381C29.5653 24.3475 29.9807 23.9771 30.4745 23.9771H33.4143L33.2749 22.7613L33.0172 20.9598H29.9207H28.7951H27.3107L27.1373 22.7613L25.9777 32.8713L26.615 34.6634H27.8482H29.225H34.0221L34.4337 32.8713L34.2944 31.6558Z" fill="#918291"/>
<path d="M38.1695 36.4555C38.1695 36.4555 34.1128 34.2686 34.1174 34.2488C34.1219 34.229 26.4169 34.2488 26.4169 34.2488L22.2427 36.4555C22.2086 36.5251 22.1908 36.6029 22.1908 36.6815V40H37.4154C37.8605 40 38.2213 39.6392 38.2213 39.1941V36.6816C38.2213 36.6029 38.2035 36.5251 38.1695 36.4555Z" fill="#A79BA7"/>
<path d="M27.0525 39.3797V35.544C27.0525 35.0702 26.9204 34.6266 26.6914 34.248C26.5164 34.2485 26.417 34.2487 26.417 34.2487L22.2428 36.4554C22.2087 36.5251 22.1909 36.6029 22.1909 36.6815V39.9999H26.9444C27.0142 39.806 27.0525 39.5973 27.0525 39.3797Z" fill="#918291"/>
<path d="M38.1695 36.4554H22.2428C22.2695 36.3971 22.3076 36.3444 22.3554 36.2998L25.9777 32.8712H34.4338L38.0569 36.2998C38.1039 36.3444 38.1428 36.3971 38.1695 36.4554Z" fill="#B5ADB6"/>
<path d="M34.4338 32.8712H25.9777L22.3554 36.2998C22.3076 36.3444 22.2695 36.3971 22.2428 36.4554H25.5969L25.837 36.2282V36.4554H27.0525V35.544C27.0525 35.5426 27.0525 35.5411 27.0525 35.5396C27.0519 35.252 27.161 34.975 27.37 34.7772L27.525 34.6304C27.8765 34.2978 28.342 34.1124 28.826 34.1124H35.7454L34.4338 32.8712Z" fill="#A79BA7"/>
<path d="M31.9442 19.5829C33.7542 18.8847 35.0389 17.1296 35.0389 15.0735C35.0389 12.4045 32.8752 10.2407 30.2061 10.2407C27.537 10.2407 25.3733 12.4045 25.3733 15.0735C25.3733 17.1297 26.6579 18.8848 28.468 19.5829L30.2061 20.1332L31.9442 19.5829Z" fill="#A79BA7"/>
<path d="M31.6577 19.5829C29.8477 18.8847 28.563 17.1296 28.563 15.0735C28.563 12.9634 29.9171 11.1695 31.8023 10.5104C31.3027 10.3358 30.7651 10.2406 30.2061 10.2406C27.537 10.2406 25.3733 12.4043 25.3733 15.0734C25.3733 17.1296 26.6579 18.8847 28.468 19.5828L30.2061 20.1331L31.801 19.6282L31.6577 19.5829Z" fill="#918291"/>
<path d="M20.5159 27.6722L19.6958 13.6191L19.5407 10.2407H8.1939L7.91983 13.6191L7.09975 27.6722L6.5116 31.6791H21.0671L20.5159 27.6722Z" fill="#FD8087"/>
<path d="M20.5159 27.6722L20.4449 26.4566H13.1671C12.3296 26.4566 11.6647 25.7519 11.7135 24.9158L12.2218 16.2057C12.2667 15.4359 12.9041 14.8346 13.6753 14.8346H19.7667L19.6958 13.6191L19.5407 10.2406H12.6469H11.2155H8.19398L7.91983 13.6191L7.09975 27.6722L6.5116 31.679H10.5015H10.9646H21.0671L20.5159 27.6722Z" fill="#FE646F"/>
<path d="M20.0845 9.33782C21.1077 9.33782 21.9373 8.50834 21.9373 7.48502V1.18644C21.9373 0.864893 21.6766 0.604202 21.355 0.604202H19.4561C19.2568 0.604202 19.0712 0.706226 18.9644 0.874618L17.8059 2.7014C17.7448 2.79784 17.6386 2.85626 17.5244 2.85626H16.181C16.0165 2.85626 15.8766 2.73625 15.8516 2.57361L15.5315 0.493669C15.488 0.209639 15.2435 0 14.9562 0H12.6595C12.3721 0 12.1277 0.209639 12.0841 0.493669L11.764 2.57361C11.739 2.73625 11.5991 2.85626 11.4345 2.85626H10.0912C9.97704 2.85626 9.8708 2.79784 9.8097 2.7014L8.65122 0.874618C8.54441 0.706226 8.35892 0.604202 8.15949 0.604202H6.26059C5.93904 0.604202 5.67834 0.864893 5.67834 1.18644V7.4851C5.67834 8.50834 6.50783 9.3379 7.53114 9.3379L20.0845 9.33782Z" fill="#FD8087"/>
<path d="M9.75476 7.31189C8.73152 7.31189 7.90196 6.48241 7.90196 5.45909V0.604248H6.26059C5.93904 0.604248 5.67834 0.86494 5.67834 1.18649V7.48515C5.67834 8.50838 6.50783 9.33794 7.53114 9.33794H20.0845C21.1077 9.33794 21.9373 8.50846 21.9373 7.48515V7.31189H9.75476Z" fill="#FE646F"/>
<path d="M21.3147 9.33777C21.9547 9.33777 22.4736 9.85664 22.4736 10.4967V12.4602C22.4736 13.1002 21.9547 13.619 21.3147 13.619H6.30098C5.66096 13.619 5.14209 13.1002 5.14209 12.4602V10.4967C5.14209 9.85664 5.66096 9.33777 6.30098 9.33777H21.3147Z" fill="#FE99A0"/>
<path d="M9.80577 12.4602V10.4967C9.80577 9.85664 10.3246 9.33777 10.9647 9.33777H6.30098C5.66096 9.33777 5.14209 9.85664 5.14209 10.4967V12.4602C5.14209 13.1002 5.66096 13.619 6.30098 13.619H10.9647C10.3246 13.619 9.80577 13.1002 9.80577 12.4602Z" fill="#FD8087"/>
<path d="M23.7412 34.2488L22.1344 28.3907C22.018 27.9664 21.6323 27.6722 21.1923 27.6722H6.42343C5.9834 27.6722 5.59776 27.9664 5.48131 28.3907L3.87445 34.2488L2.67383 37.5024H25.0813L23.7412 34.2488Z" fill="#FE99A0"/>
<path d="M7.7123 35.9102L9.03107 31.1024C9.31762 30.0578 10.2672 29.3336 11.3504 29.3336H22.393L22.1344 28.3907C22.018 27.9664 21.6323 27.6722 21.1923 27.6722H6.42343C5.9834 27.6722 5.59767 27.9664 5.48131 28.3907L3.87445 34.2488L2.67383 37.5024H7.12471L7.7123 35.9102Z" fill="#FD8087"/>
<path d="M24.5417 34.2488H3.07396C2.35866 34.2488 1.77869 34.8287 1.77869 35.5441V39.3798C1.77869 39.7224 2.0564 40.0001 2.39901 40.0001H25.2165C25.5592 40.0001 25.8369 39.7224 25.8369 39.3798V35.5441C25.837 34.8287 25.2571 34.2488 24.5417 34.2488Z" fill="#FD8087"/>
<path d="M5.90194 38.7975C5.90194 37.0999 7.27817 35.7236 8.97579 35.7236H25.8369V35.5441C25.8369 34.8287 25.257 34.2488 24.5416 34.2488H3.07396C2.35866 34.2488 1.77869 34.8287 1.77869 35.5441V39.3798C1.77869 39.7224 2.0564 40.0001 2.39901 40.0001H5.90194V38.7975Z" fill="#FE646F"/>
<path d="M34.8965 22.7616H25.5158C25.2758 22.7616 25.0814 22.5671 25.0814 22.3273V21.4728C25.0814 20.4291 25.9275 19.583 26.9713 19.583H33.4411C34.4848 19.583 35.3309 20.4291 35.3309 21.4728V22.3272C35.3308 22.5671 35.1363 22.7616 34.8965 22.7616Z" fill="#B5ADB6"/>
<path d="M28.303 22.3272V21.4728C28.303 20.4291 29.149 19.583 30.1928 19.583H26.9711C25.9274 19.583 25.0813 20.4291 25.0813 21.4728V22.3272C25.0813 22.5671 25.2758 22.7616 25.5156 22.7616H28.7373C28.4974 22.7616 28.303 22.5671 28.303 22.3272Z" fill="#A79BA7"/>
</g>
<defs>
<clipPath id="clip0_3103_1284">
<rect width="40" height="40" fill="white"/>
</clipPath>
</defs>
</svg>
