<svg width="40" height="40" viewBox="0 0 40 40" fill="none" xmlns="http://www.w3.org/2000/svg">
<g clip-path="url(#clip0_3103_2621)">
<path d="M19.0242 40C29.5309 40 38.0484 31.4826 38.0484 20.9758C38.0484 10.4691 29.5309 1.95166 19.0242 1.95166C8.51742 1.95166 0 10.4691 0 20.9758C0 31.4826 8.51742 40 19.0242 40Z" fill="#E6646E"/>
<path d="M23.288 35.736C12.7813 35.736 4.26398 27.2187 4.26398 16.712C4.26398 12.5471 5.60616 8.69757 7.87639 5.56445C3.10585 9.02117 0 14.6343 0 20.976C0 31.4827 8.51733 40 19.024 40C25.3657 40 30.9789 36.8941 34.4356 32.1235C31.3025 34.3939 27.453 35.736 23.288 35.736Z" fill="#DC4655"/>
<path d="M19.0242 36.0641C27.3572 36.0641 34.1124 29.3088 34.1124 20.9758C34.1124 12.6428 27.3572 5.88757 19.0242 5.88757C10.6912 5.88757 3.93591 12.6428 3.93591 20.9758C3.93591 29.3088 10.6912 36.0641 19.0242 36.0641Z" fill="white"/>
<path d="M19.0242 32.1281C25.1835 32.1281 30.1765 27.1351 30.1765 20.9758C30.1765 14.8166 25.1835 9.82349 19.0242 9.82349C12.865 9.82349 7.87189 14.8166 7.87189 20.9758C7.87189 27.1351 12.865 32.1281 19.0242 32.1281Z" fill="#E6646E"/>
<path d="M19.0242 28.1915C23.0093 28.1915 26.2398 24.9609 26.2398 20.9759C26.2398 16.9908 23.0093 13.7603 19.0242 13.7603C15.0391 13.7603 11.8086 16.9908 11.8086 20.9759C11.8086 24.9609 15.0391 28.1915 19.0242 28.1915Z" fill="white"/>
<path d="M19.0242 24.2558C20.8357 24.2558 22.3042 22.7873 22.3042 20.9758C22.3042 19.1643 20.8357 17.6958 19.0242 17.6958C17.2127 17.6958 15.7442 19.1643 15.7442 20.9758C15.7442 22.7873 17.2127 24.2558 19.0242 24.2558Z" fill="#E6646E"/>
<path d="M25.12 13.9515L26.0477 14.8792L32.2795 8.64735L31.3518 7.71972L25.12 13.9515Z" fill="#5D5360"/>
<path d="M21.8402 17.2322L18.5602 20.5122C18.304 20.7684 18.304 21.1836 18.5602 21.4398C18.6884 21.5679 18.8562 21.632 19.0241 21.632C19.1919 21.632 19.3598 21.5679 19.4879 21.4398L22.7679 18.1598L21.8402 17.2322Z" fill="#AEA8AF"/>
<path d="M21.8402 17.2322L19.9711 19.1013C20.0826 19.2907 20.2097 19.4717 20.369 19.631C20.5283 19.7903 20.7093 19.9173 20.8986 20.0289L22.7678 18.1598L21.8402 17.2322Z" fill="#9C969E"/>
<path d="M33.8403 9.16805H31.488C31.1258 9.16805 30.832 8.87438 30.832 8.51203V6.15977C30.832 5.98579 30.9012 5.81891 31.0241 5.69595L36.5796 0.140488C36.8794 -0.159355 37.3921 0.052988 37.3921 0.47705V2.60806H39.5231C39.9471 2.60806 40.1594 3.12072 39.8597 3.42056L34.3043 8.97594C34.1812 9.09891 34.0143 9.16805 33.8403 9.16805Z" fill="#6F6571"/>
<path d="M21.2967 18.7033C20.7865 18.1931 20.7865 17.3581 21.2967 16.8479L24.0799 14.0647C24.5902 13.5544 25.4252 13.5544 25.9354 14.0647C26.4456 14.5749 26.4456 15.4099 25.9354 15.9201L23.1522 18.7033C22.6419 19.2136 21.807 19.2136 21.2967 18.7033Z" fill="#FFC850"/>
<path d="M24.0799 14.0647L21.2967 16.8478C20.7865 17.358 20.7865 18.193 21.2967 18.7033L25.9353 14.0647C25.4251 13.5544 24.5901 13.5544 24.0799 14.0647Z" fill="#FFDC64"/>
<path d="M37.392 0.476911C37.392 0.0529274 36.8794 -0.159494 36.5795 0.140349L31.0241 5.69581C30.9011 5.81885 30.832 5.98573 30.832 6.15963V8.5119C30.832 8.69307 30.9055 8.85705 31.0241 8.97572L37.392 2.60784V0.476911Z" fill="#5D5360"/>
<path d="M4.29127 17.7241C4.06103 18.7719 3.93604 19.8591 3.93604 20.976C3.93604 29.3089 10.6912 36.064 19.0241 36.064C20.141 36.064 21.2282 35.939 22.2759 35.7088C12.5752 35.2001 4.79994 27.4249 4.29127 17.7241Z" fill="#EDEBED"/>
</g>
<defs>
<clipPath id="clip0_3103_2621">
<rect width="40" height="40" fill="white"/>
</clipPath>
</defs>
</svg>
