<svg width="40" height="40" viewBox="0 0 40 40" fill="none" xmlns="http://www.w3.org/2000/svg">
<g clip-path="url(#clip0_3103_8235)">
<path d="M39.915 26.2894L37.3588 11.792C36.883 9.09357 34.5237 7.20151 31.8713 7.22654L31.8707 7.22437H25.7543L19.8511 8.02915L14.2458 7.22437H7.96846L7.96766 7.22686C5.38139 7.27812 3.10746 9.14829 2.64125 11.792L0.0849978 26.2894C-0.444955 29.2948 1.56187 32.1608 4.56727 32.6907C7.57267 33.2206 10.4387 31.2138 10.9686 28.2084L11.3405 26.0987C11.4761 25.3295 12.1445 24.7687 12.9256 24.7687H27.0743C27.8554 24.7687 28.5238 25.3295 28.6594 26.0987L29.0314 28.2084C29.5613 31.2138 32.4273 33.2206 35.4327 32.6907C38.4382 32.1608 40.445 29.2949 39.915 26.2894Z" fill="#3C6A73"/>
<path d="M16.1652 24.7684H12.9259C12.1444 24.7684 11.4765 25.3294 11.3405 26.0987L10.9687 28.2089C10.9091 28.5461 10.8198 28.8712 10.7047 29.1811C8.93897 28.6596 7.64648 27.0234 7.64648 25.0903C7.64648 22.7387 9.56027 20.825 11.9119 20.825C14.1548 20.825 16.0002 22.5665 16.1652 24.7684Z" fill="#606060"/>
<path d="M7.96842 7.224H9.1756L9.1748 7.22722C6.58821 7.27792 4.31468 9.14825 3.84871 11.792L1.2919 26.2894C0.762345 29.2945 2.76868 32.1612 5.77457 32.6907C5.89529 32.7125 6.01681 32.7294 6.13753 32.743C5.93874 32.7648 5.73755 32.776 5.53394 32.776C5.21524 32.776 4.89171 32.7479 4.56738 32.6907C1.5615 32.1612 -0.444838 29.2945 0.084713 26.2894L2.64153 11.792C3.1075 9.14825 5.38103 7.27792 7.96762 7.22722L7.96842 7.224Z" fill="#2F535A"/>
<path d="M39.1 30.2707C38.2936 31.5044 36.9987 32.4146 35.4326 32.6907C32.7575 33.1631 30.1934 31.6227 29.2889 29.1585C29.2881 29.1593 29.288 29.1593 29.2872 29.1593C29.1762 28.8494 29.0885 28.5331 29.0313 28.2088L28.6595 26.0987C28.5235 25.3293 27.8555 24.7683 27.0741 24.7683H16.1652C16.1137 24.0859 15.902 23.4477 15.5664 22.8924C15.6855 23.0598 15.8811 23.1588 16.0879 23.1588H23.8316C24.0521 23.1588 24.2597 23.0461 24.3756 22.8578C25.1305 21.6345 26.4858 20.8176 28.0269 20.8249C30.2884 20.8353 32.17 22.6413 32.269 24.9003C32.3203 26.0713 31.8963 27.1446 31.1742 27.944C31.1295 27.9935 31.1177 28.0653 31.1478 28.125C32.2162 30.2477 34.5816 31.5154 37.0422 31.0811C37.7995 30.9475 38.494 30.6658 39.1 30.2707Z" fill="#2F535A"/>
<path d="M28.0077 28.3099C29.7856 28.3099 31.2268 26.8686 31.2268 25.0907C31.2268 23.3128 29.7856 21.8716 28.0077 21.8716C26.2298 21.8716 24.7885 23.3128 24.7885 25.0907C24.7885 26.8686 26.2298 28.3099 28.0077 28.3099Z" fill="#B4D2D7"/>
<path d="M30.9419 26.4158C30.4373 27.5328 29.313 28.3094 28.0077 28.3094C26.2299 28.3094 24.7885 26.8688 24.7885 25.0903C24.7885 23.7849 25.5659 22.6606 26.683 22.156C26.4995 22.56 26.3981 23.0083 26.3981 23.4807C26.3981 25.2593 27.8395 26.6998 29.6172 26.6998C30.0889 26.6998 30.5379 26.5984 30.9419 26.4158Z" fill="#9BB9C3"/>
<path d="M11.7141 14.3468H10.2621C10.1288 14.3468 10.0207 14.2388 10.0207 14.1054V12.573C10.0207 11.7836 9.37469 11.1132 8.58544 11.1279C7.82 11.1422 7.20394 11.7672 7.20394 12.5361V14.1054C7.20394 14.2388 7.09585 14.3468 6.9625 14.3468H5.5105C4.72108 14.3468 4.0507 14.9928 4.06542 15.7821C4.07975 16.5475 4.70475 17.1636 5.47356 17.1636H6.96242C7.09577 17.1636 7.20386 17.2717 7.20386 17.405V18.9374C7.20386 19.7268 7.84986 20.3972 8.63912 20.3825C9.40455 20.3682 10.0206 19.7432 10.0206 18.9744V17.405C10.0206 17.2717 10.1287 17.1636 10.2621 17.1636H11.7509C12.5197 17.1636 13.1447 16.5475 13.159 15.7821C13.1739 14.9928 12.5035 14.3468 11.7141 14.3468Z" fill="#B4D2D7"/>
<path d="M8.75231 11.1361C8.44488 11.3945 8.25013 11.7816 8.25013 12.2137V14.105C8.25013 14.2386 8.14228 14.3464 8.00869 14.3464H6.96246C7.09606 14.3464 7.2039 14.2386 7.2039 14.105V12.5357C7.2039 11.7671 7.81956 11.1426 8.58572 11.1281C8.64206 11.1273 8.69759 11.1297 8.75231 11.1361Z" fill="#9BB9C3"/>
<path d="M8.25009 16.9217V20.3356C7.6473 20.1755 7.20386 19.6274 7.20386 18.9739V17.4046C7.20386 17.2713 7.09578 17.1632 6.96243 17.1632H5.47357C4.82088 17.1632 4.27202 16.7197 4.11267 16.1169H7.4453C7.88979 16.1169 8.25009 16.4773 8.25009 16.9217Z" fill="#9BB9C3"/>
<path d="M31.5085 21.2277C30.51 21.2277 29.6977 20.4154 29.6977 19.417C29.6977 18.4186 30.51 17.6062 31.5085 17.6062C32.5069 17.6062 33.3192 18.4186 33.3192 19.417C33.3192 20.4154 32.507 21.2277 31.5085 21.2277Z" fill="#B3E59F"/>
<path d="M32.9571 19.8592C31.9583 19.8592 31.1463 19.0471 31.1463 18.0484C31.1463 17.9059 31.1632 17.7675 31.1946 17.6339C30.3447 17.782 29.6977 18.5256 29.6977 19.4165C29.6977 20.4153 30.5097 21.2273 31.5085 21.2273C32.3648 21.2273 33.0834 20.6309 33.271 19.831C33.1687 19.8495 33.0641 19.8592 32.9571 19.8592Z" fill="#95D6A4"/>
<path d="M31.5085 13.9041C30.51 13.9041 29.6977 13.0918 29.6977 12.0934C29.6977 11.0949 30.51 10.2826 31.5085 10.2826C32.5069 10.2826 33.3192 11.0949 33.3192 12.0934C33.3192 13.0918 32.507 13.9041 31.5085 13.9041Z" fill="#FFD064"/>
<path d="M28.2894 17.5257C27.2909 17.5257 26.4786 16.7134 26.4786 15.7149C26.4786 14.7165 27.2909 13.9042 28.2894 13.9042C29.2878 13.9042 30.1001 14.7165 30.1001 15.7149C30.1001 16.7134 29.2879 17.5257 28.2894 17.5257Z" fill="#6CBFF8"/>
<path d="M34.7276 17.5257C33.7292 17.5257 32.9169 16.7134 32.9169 15.7149C32.9169 14.7165 33.7292 13.9042 34.7276 13.9042C35.7261 13.9042 36.5384 14.7165 36.5384 15.7149C36.5384 16.7134 35.7261 17.5257 34.7276 17.5257Z" fill="#938DC8"/>
<path d="M33.271 12.5074C33.0834 13.3073 32.3648 13.9037 31.5085 13.9037H31.494C30.6546 13.8972 29.9488 13.3162 29.7524 12.5355C29.717 12.3939 29.6977 12.2458 29.6977 12.0929C29.6977 11.202 30.3447 10.4584 31.1946 10.3103C31.1632 10.4439 31.1463 10.5823 31.1463 10.7248C31.1463 11.7235 31.9583 12.5355 32.9571 12.5355C33.0641 12.5355 33.1687 12.5259 33.271 12.5074Z" fill="#FFC250"/>
<path d="M29.738 16.1571C28.7392 16.1571 27.9272 15.3451 27.9272 14.3464C27.9272 14.2039 27.9441 14.0655 27.9755 13.9319C27.1256 14.08 26.4786 14.8236 26.4786 15.7145C26.4786 16.7132 27.2906 17.5253 28.2894 17.5253C29.1456 17.5253 29.8643 16.9289 30.0518 16.129C29.9496 16.1475 29.845 16.1571 29.738 16.1571Z" fill="#5FA7EE"/>
<path d="M36.4901 16.129C36.3026 16.9289 35.5839 17.5253 34.7276 17.5253C34.7156 17.5253 34.7027 17.5253 34.6906 17.5245C33.8899 17.5084 33.2154 16.9708 32.9941 16.2384C32.9434 16.0726 32.9169 15.8964 32.9169 15.7145C32.9169 14.8236 33.5639 14.08 34.4138 13.9319C34.3824 14.0655 34.3655 14.2039 34.3655 14.3464C34.3655 15.3451 35.1775 16.1571 36.1763 16.1571C36.2833 16.1571 36.3879 16.1475 36.4901 16.129Z" fill="#7F78BD"/>
<path d="M14.2458 7.22437H25.7543V12.9384C25.7543 13.3828 25.394 13.7432 24.9495 13.7432H15.0506C14.6061 13.7432 14.2458 13.3828 14.2458 12.9384V7.22437Z" fill="#B4D2D7"/>
<path d="M16.6602 13.7428H15.0506C14.6063 13.7428 14.2458 13.383 14.2458 12.938V7.224H15.8554V12.938C15.8554 13.383 16.2159 13.7428 16.6602 13.7428Z" fill="#9BB9C3"/>
<path d="M23.6618 18.6927H16.4187C16.0853 18.6927 15.8151 18.4225 15.8151 18.0891C15.8151 17.7556 16.0853 17.4855 16.4187 17.4855H23.6618C23.9952 17.4855 24.2654 17.7556 24.2654 18.0891C24.2654 18.4225 23.9952 18.6927 23.6618 18.6927Z" fill="#2F535A"/>
<path d="M23.6618 21.107H16.4187C16.0853 21.107 15.8151 20.8368 15.8151 20.5034C15.8151 20.1699 16.0853 19.8998 16.4187 19.8998H23.6618C23.9952 19.8998 24.2654 20.1699 24.2654 20.5034C24.2654 20.8368 23.9952 21.107 23.6618 21.107Z" fill="#2F535A"/>
<path d="M16.1652 24.7684H12.9259C12.1444 24.7684 11.4765 25.3294 11.3405 26.0987L10.9687 28.2089C10.9091 28.5461 10.8198 28.8712 10.7047 29.1811C8.93897 28.6596 7.64648 27.0234 7.64648 25.0903C7.64648 22.7387 9.56027 20.825 11.9119 20.825C14.1548 20.825 16.0002 22.5665 16.1652 24.7684Z" fill="#2F535A"/>
<path d="M11.9119 28.3099C13.6898 28.3099 15.1311 26.8686 15.1311 25.0907C15.1311 23.3128 13.6898 21.8716 11.9119 21.8716C10.134 21.8716 8.69275 23.3128 8.69275 25.0907C8.69275 26.8686 10.134 28.3099 11.9119 28.3099Z" fill="#B4D2D7"/>
<path d="M14.8462 26.4158C14.3416 27.5328 13.2173 28.3094 11.9119 28.3094C10.1341 28.3094 8.69275 26.8688 8.69275 25.0903C8.69275 23.7849 9.47017 22.6606 10.5872 22.156C10.4037 22.56 10.3023 23.0083 10.3023 23.4807C10.3023 25.2593 11.7437 26.6998 13.5215 26.6998C13.9931 26.6998 14.4422 26.5984 14.8462 26.4158Z" fill="#9BB9C3"/>
</g>
<defs>
<clipPath id="clip0_3103_8235">
<rect width="40" height="40" fill="white"/>
</clipPath>
</defs>
</svg>
