<svg width="40" height="40" viewBox="0 0 40 40" fill="none" xmlns="http://www.w3.org/2000/svg">
<path d="M39.3952 12.7566H37.5591L34.7257 13.9423L25.0035 26.0362L25.9696 27.2434H28.7715C28.9548 27.2434 29.1283 27.16 29.2429 27.0168L39.8665 13.7373C40.1828 13.3421 39.9014 12.7566 39.3952 12.7566Z" fill="#D40000"/>
<path d="M24.3244 20H16.7405C15.2736 20 13.8861 20.6668 12.9698 21.8123L9.40948 26.2626C9.09326 26.6579 9.37471 27.2433 9.88086 27.2433H14.5189C14.7022 27.2433 14.8757 27.1599 14.9903 27.0168L16.7406 24.8289H21.4272C21.6105 24.8289 21.7839 24.7455 21.8986 24.6023L24.7959 20.9806C25.112 20.5855 24.8306 20 24.3244 20Z" fill="#F02E0E"/>
<path d="M30.1192 12.7566H16.7405C13.0731 12.7566 9.60465 14.4236 7.31364 17.2874L0.133414 26.2627C-0.182801 26.658 0.0986459 27.2434 0.604799 27.2434H5.24283C5.42617 27.2434 5.59961 27.16 5.71421 27.0168L11.0845 20.304C12.459 18.5858 14.5402 17.5854 16.7406 17.5854H27.2219C27.4052 17.5854 27.5787 17.5021 27.6933 17.3589L30.5906 13.7372C30.9067 13.3421 30.6253 12.7566 30.1192 12.7566Z" fill="#F02E0E"/>
<path d="M34.2858 12.9831L23.6622 26.2627C23.3459 26.658 23.6274 27.2434 24.1335 27.2434H25.9697L37.5591 12.7566H34.7572C34.5739 12.7566 34.4004 12.84 34.2858 12.9831Z" fill="#F02E0E"/>
</svg>
