<svg width="50" height="50" viewBox="0 0 50 50" fill="none" xmlns="http://www.w3.org/2000/svg">
<path d="M44.8611 21.5278L44.5833 25.4167L43.8889 37.0834C43.75 39.0278 42.5 40.8334 40.6944 41.5278C26.3889 47.0834 26.8056 47.0834 26.25 47.2223C25.5556 47.3612 24.7222 47.3612 23.8889 47.2223C23.1944 47.0834 23.75 47.2223 9.44445 41.5278C7.63889 40.8334 6.38889 39.0278 6.25 37.0834L5.55556 25.4167L5.27778 21.5278L25 27.7778L44.8611 21.5278Z" fill="#F45170"/>
<path d="M26.1111 30.2778V47.0834C25.4167 47.2223 24.5833 47.2223 23.75 47.0834V30.2778C24.5833 30.6945 25.4167 30.6945 26.1111 30.2778Z" fill="#FA5F7F"/>
<path d="M5.13889 21.5278L5.41666 25.4167L23.8889 33.3334C24.5833 33.6112 25.4167 33.6112 26.25 33.3334L44.7222 25.4167L45 21.5278L25 27.7778L5.13889 21.5278Z" fill="#CC104A"/>
<g opacity="0.5">
<path d="M23.8889 30.2778V33.1945C24.5833 33.4723 25.4167 33.4723 26.25 33.1945V30.2778C25.4167 30.6945 24.5833 30.6945 23.8889 30.2778Z" fill="#93073A"/>
</g>
<path d="M45.8333 22.2223L26.25 30.5556C25.9722 30.6945 25.5556 30.8334 25.1389 30.8334C24.7222 30.8334 24.4444 30.6945 24.0278 30.5556L4.16667 22.2223C2.77778 21.6667 2.5 17.6389 3.05556 15.0001C3.19444 14.4445 3.33333 14.0278 3.47222 13.6112C3.75 13.1945 3.88889 12.9167 4.16667 12.7778H45.8333C46.1111 12.9167 46.25 13.0556 46.3889 13.3334C46.6667 13.7501 46.8056 14.3056 46.9444 14.8612C47.5 17.6389 47.0833 21.6667 45.8333 22.2223Z" fill="#E93565"/>
<path d="M46.9444 15C46.6667 14.1666 45.4167 14.5833 45.4167 14.5833L27.0833 22.3611C26.5278 22.6389 26.1111 23.1944 26.1111 23.8889V30.5555C25.8333 30.6944 25.4167 30.8333 25 30.8333C24.5833 30.8333 24.3056 30.6944 23.8889 30.5555V23.75C23.8889 23.0555 23.4722 22.5 22.9167 22.2222L4.44444 14.4444C4.02778 14.3055 3.19444 14.1666 2.91666 14.8611C3.05555 14.3055 3.19444 13.8889 3.33333 13.4722C3.61111 13.1944 3.88889 12.9166 4.16666 12.7778L23.75 4.44442C24.4444 4.16664 25.2778 4.16664 26.1111 4.44442L45.6944 12.7778C45.9722 12.9166 46.1111 13.0555 46.25 13.3333C46.6667 13.75 46.8055 14.3055 46.9444 15Z" fill="#FA5F7F"/>
<path d="M25.5556 21.5278L43.8889 13.8889C44.1667 13.7501 44.1667 13.3334 43.8889 13.1945L25.5556 5.6945C25.1389 5.55561 24.7222 5.55561 24.3056 5.6945L6.11111 13.1945C5.83333 13.3334 5.83333 13.7501 6.11111 13.8889L24.3056 21.3889C24.7222 21.6667 25.2778 21.6667 25.5556 21.5278Z" fill="#E93565"/>
<path d="M34.7222 19.0276L33.0556 19.7221C32.7778 19.4443 32.5 19.3054 31.6667 18.8888L33.6111 18.0554C34.0278 18.4721 34.4444 18.7499 34.7222 19.0276Z" fill="#DF3260"/>
<path d="M16.9444 19.861L15.2778 19.0276C15.5556 18.611 15.9722 18.3332 16.3889 18.0554L18.3333 18.8888C17.6389 19.3054 17.2222 19.5832 16.9444 19.861Z" fill="#DF3260"/>
<path d="M25 13.4722C26.9444 14.4444 31.1111 16.6666 33.6111 18.1944L31.6667 19.0277C29.7222 17.9166 27.0833 16.6666 25 15.8333C22.5 16.9444 20.2778 17.9166 18.3333 19.0277L16.3889 18.1944C18.6111 16.8055 22.6389 14.5833 25 13.4722Z" fill="#CC104A"/>
<path d="M18.3333 10C15.2778 11.6667 12.3611 13.1944 9.72222 14.7222C8.19445 15.6944 7.22222 17.3611 7.36111 19.1667L9.02778 40.9722C9.16667 42.0833 9.72222 43.1944 10.5556 43.75C12.6389 45.2778 16.1111 47.3611 17.7778 45.9722L15.9722 44.7222L15.5556 18.6111L25 13.3333V10H18.3333Z" fill="#FFD475"/>
<g opacity="0.5">
<path d="M16.3889 22.3612L16.5278 43.7501L15.5556 42.0834C14.7222 21.8056 14.1667 20.6945 15.2778 19.0278L16.9444 19.7223C16.3889 20.4167 16.3889 21.3889 16.3889 22.3612Z" fill="#93073A"/>
</g>
<path d="M14.0278 21.5278L15 44.5833C15 45.6944 16.1111 46.6667 17.2222 46.3889C17.7778 46.25 18.3333 45.8333 18.75 45.2778L16.9444 44.4444C16.6667 44.3056 16.5278 44.0278 16.5278 43.75L15.8333 21.25C15.8333 20.1389 16.3889 18.8889 17.3611 18.3333C19.7222 16.9444 22.0833 15.8333 24.8611 14.5833V12.5C22.2222 13.75 18.75 15.6944 16.25 17.2222C14.8611 18.0556 13.8889 19.7222 14.0278 21.5278Z" fill="#F3A250"/>
<path d="M31.6667 10C34.7222 11.5278 37.6389 13.1944 40.2778 14.7222C41.8056 15.6944 42.7778 17.3611 42.6389 19.1667L40.9722 40.9722C40.8333 42.0833 40.2778 43.1944 39.4444 43.75C37.3611 45.2778 33.8889 47.3611 32.2222 45.9722L34.0278 44.7222L34.4444 18.6111L25 13.3333V10H31.6667Z" fill="#FFD475"/>
<g opacity="0.5">
<path d="M33.6111 22.3612L33.4722 43.889L34.5833 42.0834C35.1389 21.8056 35.8333 20.8334 34.7222 19.1667L33.0556 19.8612C33.6111 20.4167 33.6111 21.389 33.6111 22.3612Z" fill="#93073A"/>
</g>
<path d="M35.9722 21.5278L35 44.5833C35 45.6944 33.8889 46.6667 32.7778 46.3889C32.2222 46.25 31.6667 45.8333 31.25 45.2778L33.0555 44.5833C33.3333 44.4444 33.4722 44.3056 33.4722 44.0278L34.1667 21.5278C34.1667 20.4167 33.6111 19.1667 32.6389 18.6111C31.9444 18.1944 31.1111 17.7778 30.4167 17.3611C28.8889 16.5278 27.2222 15.8333 25.6944 15.1389C25.4167 15 25.2778 15 25.1389 14.8611V12.5C25.8333 12.9167 26.5278 13.1944 27.2222 13.6111C29.4444 14.7222 31.3889 15.8333 33.75 17.2222C33.8889 17.3611 34.0278 17.5 34.1667 17.5C35.2778 18.4722 36.1111 20 35.9722 21.5278Z" fill="#F3A250"/>
<path d="M22.7778 10.6945C22.7778 10.8334 22.6389 11.1112 22.6389 11.2501C21.9444 13.3334 20.9722 14.4445 18.75 13.8889C17.3611 13.4723 11.8056 14.7223 11.3889 14.5834C10.1389 14.0278 9.72222 12.6389 9.86111 11.1112C9.86111 9.16672 10.6944 6.9445 11.3889 5.55561C12.0833 4.16672 13.1944 3.05561 14.4444 2.77783H15C16.9444 2.77783 20.2778 5.97228 21.3889 7.36117C22.5 8.75005 21.5278 7.50005 21.5278 7.50005C22.2222 8.33339 22.6389 9.16672 22.7778 9.86117V10.6945Z" fill="#FFD475"/>
<path d="M22.7778 10.6945C22.7778 10.8334 22.6389 11.1112 22.6389 11.2501C22.3611 10.4167 21.5278 9.16672 21.25 8.88894C20 7.36117 16.8056 4.30561 14.8611 4.30561C12.0833 4.30561 10.2778 8.33339 9.86111 11.1112C9.86111 9.16672 10.6944 6.9445 11.3889 5.55561C11.9444 4.30561 13.3333 3.05561 14.4444 2.77783H15C16.9444 2.77783 20.2778 5.97228 21.3889 7.36117C22.5 8.75005 21.5278 7.50005 21.5278 7.50005C22.3611 8.61117 22.6389 9.30561 22.7778 9.86117V10.6945Z" fill="#FFDE9B"/>
<g opacity="0.5">
<path d="M24.3056 14.9999C23.8889 15.1388 23.3333 15.4166 22.9167 15.5554C21.25 15.4166 20.9722 15.4166 20.5556 15.1388C20.6944 15.1388 20.8333 14.9999 20.8333 14.861C21.3889 14.3054 21.1111 13.7499 20.6944 13.1943H22.5L22.7778 13.4721L24.3056 14.9999Z" fill="#DD8536"/>
</g>
<path d="M9.86111 12.3611C9.86111 13.1944 9.86111 15.8333 12.9167 16.25C14.0278 16.3889 16.25 16.3889 17.5 16.3889C19.3056 16.25 21.9444 15.9722 21.9444 14.1666C21.9444 13.8889 21.8056 13.4722 21.6667 13.1944C21.3889 12.6389 20.4167 11.8055 20.2778 11.8055C18.0556 10.1389 14.5833 8.74997 13.0556 8.61108C11.1111 8.61108 9.86111 10.4166 9.86111 12.3611Z" fill="#FFB961"/>
<path d="M16.1111 15.8332C28.0556 15.8332 16.25 9.30539 13.0556 9.1665C11.5278 9.1665 10.4167 10.5554 10.4167 12.3609C10.4167 15.9721 12.5 15.8332 16.1111 15.8332Z" fill="#F3A250"/>
<path d="M20.9722 15C21.1111 14.8611 21.1111 15 20.9722 15V15Z" fill="#F3A250"/>
<path d="M10.4167 12.3609C10.4167 13.0554 10.5556 14.0276 10.9722 14.5832C11.1111 13.0554 12.2222 11.6665 13.6111 11.6665C15 11.6665 18.6111 13.0554 20.8333 14.9998C23.0556 16.9443 20.8333 14.9998 20.9722 14.8609C22.7778 13.0554 15.5556 9.30539 12.9167 9.1665C11.5278 9.30539 10.4167 10.5554 10.4167 12.3609Z" fill="#DD8536"/>
<path d="M27.2222 10.6945C27.7778 12.9167 28.8889 14.5834 31.25 13.75C32.6389 13.3334 38.1944 14.5834 38.6111 14.4445C39.5833 14.0278 40 13.0556 40.1389 11.9445C40.4167 8.88893 38.1944 1.94448 34.1667 2.91671C32.7778 3.33337 30.1389 5.41671 28.4722 7.50004C26.8056 9.58337 28.3333 7.63893 28.3333 7.63893C27.5 8.75004 26.9444 9.86115 27.2222 10.6945Z" fill="#FFD475"/>
<path d="M40.1389 11.111C39.5833 7.9166 37.5 3.61105 34.3056 4.30549C32.2222 4.99993 27.9167 8.88882 27.3611 11.111C27.0833 10.2777 26.8056 9.44438 28.3333 7.49993L28.4722 7.36105C30.1389 5.27771 32.7778 3.33327 34.1667 2.77771C38.0556 1.94438 40.1389 8.33327 40.1389 11.111Z" fill="#FFDE9B"/>
<g opacity="0.5">
<path d="M40.6944 14.9999C39.5833 17.361 36.9444 17.4999 34.1667 17.4999C33.4722 17.4999 32.9167 17.4999 32.2222 17.4999C31.1111 17.4999 30.6944 17.361 30.2778 17.2221C28.75 16.3888 27.0833 15.6943 25.5555 14.9999L26.9444 13.4721L27.2222 13.1943H37.5C38.4722 13.7499 40.2778 14.7221 40.6944 14.9999Z" fill="#DD8536"/>
</g>
<path d="M28.0556 14.3056C28.0556 16.1111 30.6944 16.3889 32.5 16.5278C37.0833 16.6667 40.1389 16.8056 40.1389 12.5C40.1389 10.5556 38.8889 8.75 36.9444 8.75C34.5833 8.75 28.0556 11.8056 28.0556 14.3056Z" fill="#FFB961"/>
<path d="M33.8889 15.8332C21.9444 15.8332 33.8889 9.30539 36.9444 9.1665C38.4722 9.1665 39.5833 10.5554 39.5833 12.3609C39.5833 15.9721 37.3611 15.8332 33.8889 15.8332Z" fill="#F3A250"/>
<path d="M39.5833 12.3609C39.5833 13.0554 39.4444 13.8887 39.0278 14.5832C38.8889 12.9165 37.7778 11.6665 36.3889 11.6665C35 11.6665 31.3889 13.0554 29.1667 14.9998C26.9444 16.9443 29.1667 14.9998 29.0278 14.8609C27.2222 13.0554 34.4444 9.30539 37.0833 9.1665C38.4722 9.30539 39.5833 10.5554 39.5833 12.3609Z" fill="#DD8536"/>
<g opacity="0.1">
<path d="M29.8611 12.4998C29.4444 12.7776 28.8889 13.472 28.75 14.0276C28.75 14.3054 28.75 14.5832 29.0278 14.8609C29.0278 14.8609 29.0278 14.9998 29.1667 14.9998C29.3056 15.1387 29.3056 15.1387 29.4444 15.2776C29.1667 15.5554 28.75 15.5554 27.0833 15.6943C26.3889 15.2776 25.6944 14.9998 25 14.722C24.7222 14.8609 24.5833 14.8609 24.4444 14.9998C24.0278 15.1387 23.4722 15.4165 23.0556 15.5554C21.3889 15.4165 21.1111 15.4165 20.6944 15.1387C21.25 14.8609 21.6667 14.1665 20.8333 13.1943C20.5556 12.9165 20.4167 12.6387 20.1389 12.4998C20.1389 12.222 20.8333 8.47205 20.8333 8.33316C20.9722 7.91649 21.1111 7.63872 21.3889 7.49983C21.6667 7.36094 21.5278 7.63872 21.5278 7.63872C22.3611 8.74983 22.9167 9.86094 22.6389 10.6943C22.3611 11.6665 22.0833 12.6387 21.3889 13.1943C21.5278 13.472 21.6667 13.7498 21.6667 14.0276C21.9444 13.8887 22.3611 13.6109 22.7778 13.472C23.6111 13.1943 24.3056 12.7776 25 12.4998C26.1111 13.0554 27.0833 13.6109 28.1944 14.1665C28.1944 13.8887 28.3333 13.6109 28.4722 13.3332C27.9167 12.6387 27.5 11.8054 27.2222 10.8332C26.9444 9.99983 27.5 8.88872 28.4722 7.7776C28.4722 7.7776 28.4722 7.63872 28.6111 7.63872C28.8889 7.63872 29.0278 7.91649 29.1667 8.33316C29.1667 8.61094 29.8611 12.3609 29.8611 12.4998Z" fill="#111D33"/>
</g>
<path d="M20.5555 13.75C20.4167 14.3055 20.8333 14.7222 21.25 14.7222C24.4444 15.1389 25.2778 15.1389 28.6111 14.7222C29.1667 14.7222 29.4444 14.1666 29.3055 13.75L28.6111 10.4166C28.6111 9.99997 28.1944 9.86108 27.7778 9.86108C25.9722 10.2777 23.6111 10.2777 21.8055 9.86108C21.3889 9.72219 21.1111 9.99997 20.9722 10.4166L20.5555 13.75Z" fill="#FFB961"/>
<path d="M20.9722 11.5277C20.8333 11.9444 21.25 12.4999 21.6667 12.4999C24.4444 12.9166 25.5556 12.9166 28.3333 12.4999C28.75 12.4999 29.1667 12.0833 29.0278 11.5277L28.4722 8.47216C28.4722 8.19439 28.0556 7.91661 27.7778 8.0555C26.25 8.47216 23.8889 8.47216 22.3611 8.0555C22.0833 7.91661 21.6667 8.19439 21.6667 8.47216L20.9722 11.5277Z" fill="#FFD475"/>
</svg>
