<svg width="40" height="40" viewBox="0 0 40 40" fill="none" xmlns="http://www.w3.org/2000/svg">
<path d="M26.4676 8.92932L12.8165 2.61487L11.3363 11.6343L12.8165 15.2437L26.4676 8.92932Z" fill="#E22342"/>
<path d="M12.8165 30.6854C17.2456 31.0423 20.6286 32.9781 20.6286 35.3127C20.6286 37.6473 17.2456 39.5831 12.8165 39.94C12.3346 39.9794 11.8404 40 11.3363 40C10.8321 40 10.338 39.9794 9.85605 39.94C5.42699 39.5831 2.04395 37.6473 2.04395 35.3127C2.04395 32.9781 5.42699 31.0423 9.85605 30.6854" fill="#455256"/>
<path d="M12.8164 0V39.94C12.3346 39.9795 11.8403 40 11.3362 40C10.8321 40 10.3379 39.9795 9.85596 39.94V0H12.8164Z" fill="#EFBC4B"/>
<path d="M11.3362 32.1737V0H9.85596V32.7561V39.94C10.0969 39.9795 10.344 40 10.596 40C10.6789 40 10.761 39.997 10.8428 39.9926C11.0063 39.997 11.1705 40 11.3362 40C11.8403 40 12.3345 39.9795 12.8164 39.94V35.9361C11.8652 34.9141 11.3362 33.5698 11.3362 32.1737Z" fill="#D3A13D"/>
<path d="M31.3569 33.7395C35.0016 33.7395 37.9561 30.7849 37.9561 27.1402C37.9561 23.4956 35.0016 20.541 31.3569 20.541C27.7123 20.541 24.7577 23.4956 24.7577 27.1402C24.7577 30.7849 27.7123 33.7395 31.3569 33.7395Z" fill="#EAEAE4"/>
<path d="M33.8436 29.7803C33.8436 27.5939 30.8892 25.8213 27.2447 25.8213C23.6001 25.8213 20.6458 27.5937 20.6458 29.7803C20.6458 31.9667 23.6001 33.7393 27.2447 33.7393C34.855 33.7392 33.8436 31.9668 33.8436 29.7803Z" fill="#EAEAE4"/>
<path d="M28.7032 27.1403C28.7032 24.183 30.6486 21.6804 33.3293 20.8416C32.7064 20.6467 32.0438 20.5414 31.3566 20.5414C27.7121 20.5414 24.7577 23.4958 24.7577 27.1403C24.7577 30.7847 27.7121 33.7392 31.3566 33.7392C32.0438 33.7392 32.7064 33.634 33.3293 33.439C30.6486 32.6001 28.7032 30.0976 28.7032 27.1403Z" fill="#D6D6D2"/>
<path d="M27.9888 30.9337C27.7248 30.9337 27.487 30.7592 27.4039 30.51C27.3252 30.2741 27.4006 30.0075 27.5902 29.8468C28.0127 29.4889 28.6825 29.855 28.5987 30.4072C28.5534 30.7053 28.2916 30.9337 27.9888 30.9337Z" fill="#EAEAE4"/>
<path d="M34.5759 31.2075C34.3228 31.2075 34.0917 31.0479 34.0005 30.8127C33.9026 30.5604 33.9859 30.2621 34.2034 30.0995C34.6517 29.7643 35.3039 30.1744 35.1769 30.7263C35.1129 31.0038 34.8621 31.2075 34.5759 31.2075Z" fill="#D6D6D2"/>
<path d="M34.6909 25.369C34.1369 25.369 33.8655 24.6594 34.2809 24.2915C34.7072 23.914 35.393 24.2935 35.2983 24.8541C35.2487 25.1472 34.989 25.369 34.6909 25.369Z" fill="#D6D6D2"/>
<path d="M32.4846 32.1943C31.9389 32.1943 31.6673 31.5099 32.0574 31.1332C32.2593 30.9382 32.5772 30.9073 32.8139 31.0571C33.0174 31.186 33.13 31.428 33.0947 31.6668C33.0505 31.9654 32.7875 32.1943 32.4846 32.1943Z" fill="#D6D6D2"/>
<path d="M29.9624 32.2494C29.4019 32.2494 29.1371 31.528 29.5619 31.1638C29.7647 30.9901 30.0665 30.969 30.2919 31.1115C30.5049 31.2462 30.6164 31.5054 30.5669 31.7528C30.5099 32.0372 30.2538 32.2494 29.9624 32.2494Z" fill="#EAEAE4"/>
<path d="M29.2124 28.7134C28.6617 28.7134 28.3884 28.0095 28.7982 27.6394C28.997 27.4598 29.2992 27.4299 29.5292 27.5675C29.7547 27.7023 29.8715 27.9751 29.8135 28.2315C29.7509 28.509 29.4983 28.7134 29.2124 28.7134Z" fill="#D6D6D2"/>
<path d="M32.5939 30.1655C32.0273 30.1655 31.7642 29.4317 32.2028 29.0726C32.6436 28.7115 33.3156 29.1191 33.1972 29.6761C33.1374 29.958 32.8825 30.1655 32.5939 30.1655Z" fill="#D6D6D2"/>
<path d="M36.0888 26.8491C35.8368 26.8491 35.606 26.6909 35.514 26.4567C35.4145 26.2034 35.4988 25.9052 35.7162 25.741C35.9117 25.5934 36.1817 25.5764 36.3946 25.6974C36.6317 25.8323 36.7538 26.1198 36.6863 26.3841C36.6177 26.6536 36.3674 26.8491 36.0888 26.8491Z" fill="#D6D6D2"/>
<path d="M27.8804 26.9346C27.6225 26.9346 27.3875 26.7679 27.3004 26.5257C27.2086 26.2709 27.2998 25.9782 27.5183 25.8188C27.9505 25.5036 28.572 25.8808 28.491 26.4085C28.4451 26.7072 28.1829 26.9346 27.8804 26.9346Z" fill="#D6D6D2"/>
<path d="M30.2913 30.4402C30.026 30.4402 29.7855 30.2631 29.7045 30.0114C29.6235 29.76 29.7174 29.4741 29.9333 29.3212C30.3848 29.0012 31.0191 29.4182 30.8918 29.9623C30.8273 30.2382 30.5753 30.4402 30.2913 30.4402Z" fill="#D6D6D2"/>
<path d="M27.0021 28.96C26.4412 28.96 26.1767 28.2387 26.6016 27.8745C26.8043 27.7007 27.1061 27.6797 27.3315 27.8222C27.5447 27.9569 27.656 28.2159 27.6065 28.4635C27.5496 28.748 27.2935 28.96 27.0021 28.96Z" fill="#EAEAE4"/>
</svg>
