<svg width="40" height="40" viewBox="0 0 40 40" fill="none" xmlns="http://www.w3.org/2000/svg">
<path fill-rule="evenodd" clip-rule="evenodd" d="M0.467012 6.11369L4.69842 11.482L6.95311 12.6822L7.09209 14.5188L16.5522 26.5206H19.2621L20.0009 22.6978L12.6246 14.5185L9.76561 13.3593L9.88561 11.4813L2.87178 3.70385C2.19256 3.06057 1.12787 3.04221 0.467012 3.70385C-0.196113 4.36775 -0.113535 5.37861 0.467012 6.11369Z" fill="#FE8607"/>
<path fill-rule="evenodd" clip-rule="evenodd" d="M22.7108 34.3338C24.9022 36.723 25.8958 37.6051 30.0397 36.3325L31.981 35.7352L35.3609 32.117L34.6771 28.4965L29.1678 30.1872C27.9126 30.5732 26.4349 29.668 25.3932 28.6802L23.4474 26.5208L20.3038 27.102L20.0009 30.8948L22.7108 34.3338Z" fill="#FE8607"/>
<path fill-rule="evenodd" clip-rule="evenodd" d="M31.981 35.735L36.0448 34.4876C37.5867 34.0143 37.9929 34.1384 38.6399 32.4407L39.7941 29.4152C40.432 27.745 39.5049 27.0145 38.1098 27.4418L34.6771 28.4963L31.981 35.735Z" fill="#F8F2F0"/>
<path fill-rule="evenodd" clip-rule="evenodd" d="M7.09155 14.5196H12.6238L9.88405 11.4825H4.69827L7.09155 14.5196Z" fill="#F8F2F0"/>
<path fill-rule="evenodd" clip-rule="evenodd" d="M20.1363 10.8117C22.8577 10.8117 25.0628 9.81932 25.0628 8.59252V5.30518H15.2098V8.5926C15.2098 9.81932 17.4149 10.8117 20.1363 10.8117Z" fill="#668D97"/>
<path fill-rule="evenodd" clip-rule="evenodd" d="M15.2098 5.30516C15.2098 6.52961 17.4149 7.52437 20.1363 7.52437C22.8577 7.52437 25.0628 6.52961 25.0628 5.30516C25.0628 4.07844 22.8577 3.08594 20.1363 3.08594C17.4149 3.08594 15.2098 4.07836 15.2098 5.30516Z" fill="#7CA2B1"/>
<path fill-rule="evenodd" clip-rule="evenodd" d="M14.6063 28.6801L27.3761 14.5199L29.9159 13.1054L30.1153 11.4824L37.13 3.70385C37.8069 3.06057 38.8739 3.04221 39.5348 3.70385C40.1956 4.36775 40.113 5.37861 39.5348 6.11369L35.3032 11.4822L32.7539 13.1641L32.9088 14.5201L17.291 34.3338C15.0973 36.723 14.1038 37.6051 9.95977 36.3324L8.0204 35.7367L3.28625 31.9073L5.32469 28.4965L10.8318 30.1872C12.0869 30.5731 13.5646 29.668 14.6063 28.6801Z" fill="#FEC165"/>
<path fill-rule="evenodd" clip-rule="evenodd" d="M3.95484 34.4877L8.02085 35.7351L5.32468 28.4964L1.88968 27.4419C0.494605 27.0147 -0.432427 27.7452 0.205464 29.4153L1.35968 32.4408C2.00898 34.1386 2.41515 34.0145 3.95484 34.4877Z" fill="#F8F2F0"/>
<path fill-rule="evenodd" clip-rule="evenodd" d="M27.3758 14.5196H32.908L35.3036 11.4825H30.1155L27.3758 14.5196Z" fill="#F8F2F0"/>
<path fill-rule="evenodd" clip-rule="evenodd" d="M21.4327 7.44621C23.5254 7.19121 25.0628 6.32746 25.0628 5.30511C25.0628 4.31496 23.6218 3.47417 21.6347 3.18933C22.5686 3.69707 23.1514 4.40917 23.1514 5.19949C23.1514 5.23394 23.1491 5.26839 23.1468 5.30519C23.0871 6.21035 22.2611 7.00519 21.0266 7.48761C21.1643 7.47613 21.2997 7.4623 21.4327 7.44621Z" fill="#668D97"/>
<path fill-rule="evenodd" clip-rule="evenodd" d="M21.2997 10.7497C23.4589 10.5154 25.0628 9.63783 25.0628 8.59252V5.30518C25.0628 6.32744 23.5255 7.19127 21.4327 7.44627C21.2997 7.46236 21.1643 7.47611 21.0266 7.4876V10.7773C21.1184 10.7681 21.2101 10.7589 21.2997 10.7497Z" fill="#547884"/>
<path fill-rule="evenodd" clip-rule="evenodd" d="M3.95485 34.4876L8.02087 35.735L7.07087 33.1873L2.97962 31.9307C1.43766 31.4574 1.03149 31.5814 0.38446 29.8838L1.35969 32.4407C2.00899 34.1385 2.41516 34.0144 3.95485 34.4876Z" fill="#EEE1DC"/>
<path fill-rule="evenodd" clip-rule="evenodd" d="M9.95975 36.3324C14.1038 37.6052 15.0973 36.723 17.291 34.3337L20.0009 30.8947L21.6301 28.8271L23.4474 26.5206L32.908 14.5195H29.9159L20.6549 26.2702L16.3135 31.7769C14.1222 34.1661 13.1286 35.0482 8.98459 33.7755L7.07092 33.1874L8.02092 35.7352L9.95975 36.3324Z" fill="#FEA610"/>
<path fill-rule="evenodd" clip-rule="evenodd" d="M29.9159 14.5196H32.908L35.3036 11.4825H32.3114L29.9159 14.5196Z" fill="#EEE1DC"/>
<path fill-rule="evenodd" clip-rule="evenodd" d="M32.3114 11.4826H35.3036L39.5348 6.11388C40.113 5.37872 40.1957 4.36794 39.5348 3.70403C39.31 3.48122 39.0415 3.33419 38.7547 3.26294C38.6973 3.36403 38.633 3.46278 38.5597 3.557L32.3114 11.4826Z" fill="#FEA610"/>
<path fill-rule="evenodd" clip-rule="evenodd" d="M0.467023 6.11373L4.69827 11.4825H7.79366L5.69179 8.8153L1.46054 3.44655C1.40773 3.38225 1.36187 3.31561 1.31827 3.2467C1.00624 3.30874 0.707882 3.46038 0.466945 3.70389C-0.196102 4.3678 -0.113524 5.37866 0.467023 6.11373Z" fill="#F46700"/>
<path fill-rule="evenodd" clip-rule="evenodd" d="M4.69827 11.4825L7.09155 14.5196H10.1869L8.08507 11.8524L7.79366 11.4825H4.69827Z" fill="#EEE1DC"/>
<path fill-rule="evenodd" clip-rule="evenodd" d="M20.0009 30.8947L22.7108 34.3337C24.9022 36.7229 25.8958 37.605 30.0397 36.3324L31.981 35.7351L32.9722 33.0703L31.0333 33.6653C26.8893 34.938 25.8958 34.0558 23.7044 31.6666L21.5475 28.9329L20.0009 30.8947Z" fill="#F46700"/>
<path fill-rule="evenodd" clip-rule="evenodd" d="M31.981 35.7351L36.0448 34.4877C37.5867 34.0144 37.9929 34.1384 38.6399 32.4408L39.7941 29.4152C39.8469 29.2774 39.8905 29.1442 39.9226 29.0178L39.6334 29.7736C38.9863 31.4713 38.5802 31.3473 37.0383 31.8205L35.0718 32.4247L32.9723 33.0702L31.981 35.7351Z" fill="#EEE1DC"/>
<path fill-rule="evenodd" clip-rule="evenodd" d="M7.09155 14.5197L16.5522 26.5207L18.2043 24.6897L10.1869 14.5197H7.09155Z" fill="#F46700"/>
</svg>
