<svg width="80" height="28" viewBox="0 0 80 28" fill="none" xmlns="http://www.w3.org/2000/svg">
<g clip-path="url(#clip0_3381_2254)">
<path fill-rule="evenodd" clip-rule="evenodd" d="M16.4 9.22602C16.705 10.166 17.0092 11.1069 17.2875 11.941C17.6317 12.9602 17.9825 13.986 18.3333 15.0127C18.6842 16.0385 19.035 17.0644 19.3792 18.0844C19.5375 18.5485 19.6958 19.026 19.8567 19.511C20.0717 20.161 20.29 20.8219 20.5183 21.4735H17.7108L16.625 18.3227L11.7267 18.3494L10.6667 21.5002H7.83333L12.8375 6.51185H15.5125C15.79 7.34602 16.0958 8.28685 16.4 9.22602ZM14.1625 10.7485L12.5208 15.8602H15.8575L14.1625 10.7485ZM7.85 7.04185C8.98917 7.59769 9.59833 8.60435 9.83667 9.82185C10.1283 11.3052 10.075 12.7619 9.46583 14.1385C9.01583 15.0652 8.2475 15.6477 7.29417 16.0185C6.16083 16.4527 4.58583 16.4477 3.33334 16.4435L2.97834 16.4427V21.4735H0.197502V6.51185H4.80584C6.07667 6.51185 6.87 6.61769 7.85 7.04185ZM5.04417 13.9269C5.8125 13.821 6.31583 13.3702 6.58 12.6294C6.81833 11.9935 6.76583 11.3044 6.66 10.6169C6.60667 10.0869 6.36833 9.58352 5.865 9.26602C5.12333 8.81602 2.97917 8.86852 2.97917 8.86852V14.0335C2.97917 14.0335 4.3825 14.0069 5.04417 13.9277V13.9269ZM25.815 6.51185L23.22 11.9669L20.625 6.51185H17.5533C18.295 8.15352 19.0892 9.90185 19.8033 11.4635C20.3867 12.7085 21.7367 15.8335 21.7367 15.8335L21.7108 21.4735H24.6233V15.8335C25.6033 13.7144 26.6358 11.4377 27.6158 9.31852C28.0133 8.44519 28.49 7.43852 28.8867 6.51185C27.8808 6.51185 26.7683 6.48519 25.815 6.51185ZM42.2267 15.0269H46.7017V12.511H42.2267V9.01685H47.2583V6.50019H39.42V21.4627H48.1058V18.946H42.2275L42.2267 15.0269ZM32.3583 15.0269H36.8333V12.511H32.3583V9.01685H37.3892V6.50019H29.5508V21.4627H38.21V18.946H32.3583V15.0269ZM59.14 10.9227C59.14 12.8819 57.895 14.4444 56.2533 15.0802L59.775 21.4619H56.4383L53.1017 15.3977H51.99V21.4619H49.1567V6.50019H54.7442C57.18 6.50019 59.14 8.08935 59.14 10.9227ZM51.99 12.9619H54.135C55.1142 12.9619 55.9092 12.0344 55.9092 10.9227C55.9092 9.65102 55.035 8.96269 53.9758 8.96269H51.99V12.9619Z" fill="#858DA0"/>
</g>
<defs>
<clipPath id="clip0_3381_2254">
<rect width="60.8333" height="15" fill="white" transform="translate(0 6.5)"/>
</clipPath>
</defs>
</svg>
