<svg width="99" height="24" viewBox="0 0 99 24" fill="none" xmlns="http://www.w3.org/2000/svg">
<g clip-path="url(#clip0_2708_16698)">
<mask id="mask0_2708_16698" style="mask-type:luminance" maskUnits="userSpaceOnUse" x="0" y="0" width="99" height="24">
<path d="M98.0266 0H0.693298V24H98.0266V0Z" fill="white"/>
</mask>
<g mask="url(#mask0_2708_16698)">
<path fill-rule="evenodd" clip-rule="evenodd" d="M27.7333 4.36114C28.2213 5.86514 28.708 7.37048 29.1533 8.70514C29.704 10.3358 30.2653 11.9771 30.8266 13.6198C31.3866 15.2612 31.9493 16.9025 32.5 18.5345C32.7533 19.2772 33.0066 20.0412 33.264 20.8172C33.608 21.8572 33.9573 22.9145 34.3213 23.9572H29.8306L28.0933 18.9158L20.2546 18.9585L18.5626 23.9998H14.0266L22.0333 0.0184747H26.3133C26.7573 1.35314 27.2453 2.85848 27.732 4.36114H27.7333ZM24.1533 6.79714L21.5266 14.9758H26.8653L24.1533 6.79714ZM14.0533 0.866475C15.876 1.75581 16.8506 3.36648 17.232 5.31448C17.6986 7.68781 17.6133 10.0185 16.6386 12.2211C15.9186 13.7038 14.6893 14.6358 13.1639 15.2292C11.3506 15.9238 8.83061 15.9158 6.8266 15.9092L6.25859 15.9078V23.9572H1.80927V0.0184747H9.18261C11.2159 0.0184747 12.4853 0.187808 14.0533 0.866475ZM9.56394 11.8825C10.7933 11.7131 11.5973 10.9918 12.0213 9.80648C12.4026 8.78914 12.3186 7.68648 12.1493 6.58648C12.0639 5.73848 11.6826 4.93314 10.8773 4.42514C9.69061 3.70514 6.25994 3.78914 6.25994 3.78914V12.0531C6.25994 12.0531 8.50527 12.0105 9.56394 11.8838V11.8825ZM42.7973 0.0184747L38.6453 8.74648L34.4933 0.0184747H29.5786C30.7653 2.64514 32.036 5.44248 33.1786 7.94114C34.112 9.93314 36.272 14.9332 36.272 14.9332L36.2306 23.9572H40.8906V14.9332C42.4586 11.5425 44.1106 7.89981 45.6773 4.50914C46.3133 3.11181 47.0773 1.50114 47.712 0.0184747C46.1026 0.0184747 44.3226 -0.024192 42.7973 0.0184747Z" fill="#EFF1F3"/>
<path fill-rule="evenodd" clip-rule="evenodd" d="M69.056 13.6427H76.216V9.61733H69.056V4.02667H77.1066V0H64.5653V23.94H78.4626V19.9133H69.056V13.6427ZM53.2666 13.6427H60.4266V9.61733H53.2666V4.02667H61.316V0H48.7746V23.94H62.6293V19.9133H53.2666V13.6427ZM96.1173 7.076C96.1173 10.2107 94.1253 12.7107 91.4986 13.728L97.1333 23.9387H91.7946L86.4573 14.236H84.6773V23.9387H80.144V0H89.084C92.9813 0 96.1173 2.54267 96.1173 7.076ZM84.6773 10.3387H88.108C89.676 10.3387 90.948 8.85467 90.948 7.076C90.948 5.04133 89.548 3.94 87.8546 3.94H84.6773V10.3387Z" fill="#EFF1F3"/>
</g>
</g>
<defs>
<clipPath id="clip0_2708_16698">
<rect width="97.3333" height="24" fill="white" transform="translate(0.693298)"/>
</clipPath>
</defs>
</svg>
