<svg width="143" height="24" viewBox="0 0 143 24" fill="none" xmlns="http://www.w3.org/2000/svg">
<g clip-path="url(#clip0_2708_16699)">
<path fill-rule="evenodd" clip-rule="evenodd" d="M25.7003 10.7064C25.6844 10.2157 25.4513 9.96243 24.9988 9.9458H22.5818C22.0097 9.98058 21.7142 10.2921 21.7004 10.878V15.1928C21.7142 15.7976 22.0409 16.1061 22.6762 16.1235H24.8914C25.1214 16.1235 25.3126 16.0388 25.465 15.8657C25.6242 15.7356 25.7003 15.5685 25.7003 15.3614V10.7064ZM18.5971 10.094C18.6131 9.01435 18.8553 8.19404 19.3253 7.63305C19.5714 7.39792 19.8791 7.20134 20.2539 7.03879C20.6431 6.86566 21.0202 6.78174 21.3858 6.78174H25.8222C27.7791 6.79837 28.774 7.86062 28.8052 9.97075V16.4652C28.7907 17.2144 28.4952 17.8646 27.9239 18.4082C27.3579 18.9798 26.6822 19.2709 25.8953 19.2883H21.7004V23.9705H18.5971V10.094Z" fill="#EFF1F3"/>
<path fill-rule="evenodd" clip-rule="evenodd" d="M34.4071 15.4967C34.4071 15.6774 34.4909 15.8203 34.6546 15.9277C34.8009 16.0562 34.9852 16.1235 35.2183 16.1235H37.6018C38.1404 16.1235 38.4199 15.9163 38.4359 15.4967V14.6136C38.4359 14.1313 38.1518 13.8878 37.579 13.8878H35.2183C34.9075 13.8878 34.6927 13.9392 34.5731 14.036C34.4627 14.1502 34.4071 14.3762 34.4071 14.7112V15.4967ZM38.4359 10.63C38.4519 10.1567 38.1739 9.93068 37.6011 9.9458H31.351V6.78174H38.3879C40.4378 6.815 41.4783 7.79787 41.5134 9.73864V16.3578C41.4958 17.1948 41.2376 17.8851 40.7364 18.434C40.2123 19.0025 39.5366 19.2883 38.7086 19.2883H34.4551C32.3846 19.2709 31.335 18.3326 31.303 16.4675V13.9135C31.319 11.9644 32.3222 10.974 34.308 10.94H38.4359V10.63Z" fill="#EFF1F3"/>
<path fill-rule="evenodd" clip-rule="evenodd" d="M50.2292 20.8057C50.4752 20.7906 50.6885 20.7029 50.8614 20.5456C51.0275 20.3989 51.1113 20.2303 51.1113 20.039V19.2883H47.138C46.62 19.2883 46.2057 19.2225 45.8964 19.0917C45.5696 18.973 45.2443 18.7515 44.9168 18.437C44.6068 18.1036 44.3836 17.755 44.248 17.3906C44.1071 17.0572 44.0355 16.633 44.0355 16.1235V6.78174H47.138V15.121C47.138 15.7893 47.413 16.1235 47.9699 16.1235H50.1606C50.4211 16.1235 50.6474 16.0388 50.8371 15.8657C51.0199 15.719 51.1113 15.5451 51.1113 15.341V6.78174H54.1887V20.563C54.1712 21.5829 53.9076 22.3994 53.3995 23.0186C52.8838 23.6378 52.1785 23.9546 51.2789 23.9705H44.0355V20.8057H50.2292Z" fill="#EFF1F3"/>
<path fill-rule="evenodd" clip-rule="evenodd" d="M56.6255 16.1235H62.155C62.6608 16.1061 62.9236 15.905 62.9396 15.5194V15.2351C62.9396 15.1527 62.9144 15.0612 62.8657 14.9629C62.7423 14.724 62.5907 14.6053 62.4102 14.6053H59.6686C58.8551 14.5894 58.1612 14.3112 57.5777 13.7744C56.9873 13.2785 56.6849 12.6683 56.6674 11.9524V9.59273C56.6994 7.75175 57.7072 6.815 59.6923 6.78174H66.1054V9.9458H60.6719C60.0343 9.9458 59.7128 10.1401 59.7128 10.5272V10.8334C59.7128 11.2349 60.0411 11.436 60.6955 11.436H63.4286C64.1568 11.4526 64.7776 11.7293 65.2949 12.2691C65.8174 12.8127 66.0886 13.4592 66.1054 14.2099V16.5181C66.0886 17.1668 65.7862 17.814 65.205 18.4597C64.9216 18.7764 64.6314 18.9942 64.3412 19.1174C64.041 19.2308 63.6335 19.2883 63.1132 19.2883H56.6255V16.1235Z" fill="#EFF1F3"/>
<path fill-rule="evenodd" clip-rule="evenodd" d="M71.4155 15.4967C71.4155 15.6774 71.4993 15.8203 71.6669 15.9277C71.8116 16.0562 71.9967 16.1235 72.2268 16.1235H74.6148C75.1534 16.1235 75.4314 15.9163 75.4474 15.4967V14.6136C75.4474 14.1313 75.1595 13.8878 74.5889 13.8878H72.2268C71.9167 13.8878 71.7027 13.9392 71.5838 14.036C71.4734 14.1502 71.4155 14.3762 71.4155 14.7112V15.4967ZM75.4474 10.63C75.4611 10.1567 75.1831 9.93068 74.6095 9.9458H68.3609V6.78174H75.4002C77.4477 6.815 78.489 7.79787 78.521 9.73864V16.3578C78.5043 17.1948 78.2438 17.8851 77.7456 18.434C77.2253 19.0025 76.5489 19.2883 75.7201 19.2883H71.4627C69.3938 19.2709 68.3434 18.3326 68.3145 16.4675V13.9135C68.3282 11.9644 69.3306 10.974 71.318 10.94H75.4474V10.63Z" fill="#EFF1F3"/>
<path fill-rule="evenodd" clip-rule="evenodd" d="M81.0439 4.98757C81.0629 4.13324 81.3798 3.4475 82.0014 2.93339C82.6047 2.41096 83.3969 2.14256 84.3765 2.12744H86.3471V5.18414H85.1535C84.4976 5.19927 84.1632 5.51076 84.1487 6.11257V6.78243H86.3471V9.94952H84.1487V19.2897H81.0439V4.98757Z" fill="#EFF1F3"/>
<path fill-rule="evenodd" clip-rule="evenodd" d="M95.1727 10.5711V10.4977C95.1727 10.3352 95.1064 10.1968 94.9731 10.094C94.8284 9.99419 94.6516 9.9458 94.4391 9.9458H92.2788C92.0015 9.9458 91.7783 10.0229 91.6054 10.1809C91.3906 10.3268 91.2817 10.5189 91.2817 10.7555V12.0257L95.1727 10.5711ZM91.3312 15.0438V15.2412C91.3312 15.4944 91.3975 15.6955 91.5323 15.8415C91.6298 16.0282 91.7608 16.1235 91.9353 16.1235H98.3103V19.2883H91.5323C90.9138 19.2883 90.4316 19.2308 90.0911 19.1159C89.7186 18.9942 89.3842 18.7953 89.0924 18.5186C88.7512 18.1837 88.5189 17.8427 88.4023 17.4919C88.2743 17.126 88.2111 16.6406 88.2111 16.0358L88.1844 9.70235C88.2187 7.7888 89.2257 6.815 91.2048 6.78174H95.3882C97.3208 6.815 98.2996 7.82282 98.3308 9.81047V12.3122L91.3312 15.0438Z" fill="#EFF1F3"/>
<path fill-rule="evenodd" clip-rule="evenodd" d="M104.9 19.2884C104.43 19.2884 104.001 19.2453 103.612 19.1667C103.205 19.1009 102.798 18.9134 102.383 18.5966C101.958 18.2284 101.663 17.8156 101.501 17.3597C101.331 16.9114 101.248 16.4033 101.248 15.8317V9.92625C101.231 9.44465 101.28 9.02202 101.393 8.65534C101.497 8.28941 101.717 7.93104 102.048 7.58024C102.426 7.21204 102.811 6.96708 103.218 6.84687C103.61 6.74934 104.051 6.7002 104.545 6.7002H109.301V7.44037H104.656C103.835 7.44037 103.191 7.60745 102.719 7.94238C102.237 8.30755 101.991 8.93734 101.991 9.82494V15.7342C101.991 16.15 102.055 16.5545 102.182 16.9447C102.313 17.328 102.53 17.6644 102.841 17.9585C103.179 18.2133 103.516 18.3721 103.844 18.4371C104.186 18.5119 104.554 18.5475 104.943 18.5475H109.376V19.2884H104.9Z" fill="#EFF1F3"/>
<path fill-rule="evenodd" clip-rule="evenodd" d="M121.534 11.6266H115.299C114.552 11.6432 113.967 11.8723 113.546 12.3139C113.11 12.7622 112.895 13.3769 112.895 14.1579V16.0427C112.895 16.4079 112.933 16.742 113.012 17.0429C113.09 17.3597 113.286 17.6425 113.595 17.8852C114.134 18.3282 114.73 18.5475 115.382 18.5475H119.161C120.74 18.5308 121.534 17.7052 121.534 16.0661V11.6266ZM122.275 15.8816C122.275 16.3572 122.239 16.7745 122.177 17.142C122.077 17.5412 121.87 17.926 121.557 18.2919C120.906 18.9731 120.098 19.305 119.135 19.2884H115.427C114.464 19.2884 113.683 19.0026 113.078 18.4341C112.46 17.8723 112.147 17.0913 112.147 16.0896V14.1858C112.179 12.0379 113.256 10.9378 115.38 10.8879H121.557V10.0548C121.557 9.36829 121.357 8.76723 120.958 8.25009C120.705 7.91441 120.406 7.68986 120.066 7.57419C119.723 7.48497 119.337 7.44037 118.908 7.44037H112.169V6.7002H118.557C119.142 6.7002 119.67 6.74102 120.148 6.82116C120.394 6.86955 120.617 6.96481 120.824 7.10241C121.042 7.23321 121.246 7.42449 121.435 7.6755C122.008 8.40886 122.288 9.25488 122.275 10.2075V15.8816Z" fill="#EFF1F3"/>
<path fill-rule="evenodd" clip-rule="evenodd" d="M129.248 7.44037C127.519 7.47212 126.667 8.40886 126.699 10.2521V19.2884H125.956V10.2551C125.921 7.88417 127.058 6.7002 129.368 6.7002H130.194V7.44037H129.248Z" fill="#EFF1F3"/>
<path fill-rule="evenodd" clip-rule="evenodd" d="M141.81 7.44415H135.932C135.508 7.44415 135.129 7.49102 134.787 7.58024C134.429 7.66038 134.083 7.87585 133.759 8.22666C133.449 8.54647 133.254 8.86325 133.173 9.18003C133.064 9.49984 133.014 9.88316 133.032 10.33V16.0911C133.032 17.049 133.312 17.7007 133.878 18.0507C134.158 18.2133 134.465 18.335 134.809 18.4167C135.152 18.5074 135.534 18.552 135.956 18.552H138.526C139.485 18.552 140.271 18.3328 140.874 17.8905C141.48 17.4754 141.789 16.7594 141.81 15.7388V7.44415ZM142.551 15.7894C142.486 18.174 141.215 19.3428 138.738 19.2937H135.983C135.401 19.2937 134.881 19.243 134.421 19.147C133.947 19.0253 133.494 18.7388 133.057 18.2919C132.729 17.8905 132.518 17.4845 132.433 17.0686C132.32 16.6536 132.27 16.1916 132.288 15.6873V10.3111C132.32 7.88946 133.548 6.68583 135.977 6.70397H141.81V2.62207H142.551V15.7894Z" fill="#EFF1F3"/>
<path fill-rule="evenodd" clip-rule="evenodd" d="M1.35891 6.3062C1.60267 6.1996 1.84643 6.11643 2.09018 6.06426C2.53809 3.94128 4.43254 2.34904 6.70329 2.34904C8.97556 2.34904 10.8708 3.94355 11.3179 6.06578C12.0149 6.19733 12.5915 6.47707 13.041 6.89365C13.0593 6.48614 13.0425 6.09375 12.9937 5.72404C12.7066 2.51689 9.99706 0 6.69339 0C3.29221 0 0.523282 2.67566 0.379313 6.02041C0.359508 6.30922 0.353415 6.61013 0.364079 6.92465C0.649732 6.68574 0.975758 6.47102 1.35891 6.3062Z" fill="#EFF1F3"/>
<path fill-rule="evenodd" clip-rule="evenodd" d="M10.3954 6.78174H2.81611C2.45123 6.78174 2.07341 6.86566 1.68416 7.03879C1.30862 7.20134 1.00088 7.39792 0.754075 7.63305C0.28408 8.19404 0.0433693 9.01435 0.0266113 10.094V15.9745C0.0433693 17.0564 0.28408 17.876 0.754075 18.434C1.00088 18.6729 1.30862 18.8694 1.68416 19.0335C2.07341 19.2029 2.45123 19.2883 2.81611 19.2883H10.3954C12.3531 19.2709 13.3487 18.2049 13.3799 16.0978V9.97075C13.3487 7.86062 12.3531 6.79837 10.3954 6.78174Z" fill="#EFF1F3"/>
</g>
<defs>
<clipPath id="clip0_2708_16699">
<rect width="142.588" height="24" fill="white" transform="translate(0.0266113)"/>
</clipPath>
</defs>
</svg>
