<svg width="20" height="20" viewBox="0 0 20 20" fill="none" xmlns="http://www.w3.org/2000/svg">
<path fill-rule="evenodd" clip-rule="evenodd" d="M1.44495 18.7496L9.62728 10.8747L12.5124 13.6504L2.78447 18.8536C2.41446 19.0525 1.96015 19.048 1.59482 18.8446C1.59482 18.8491 1.44495 18.7496 1.44495 18.7496ZM8.80296 10.0791L1 17.5878V2.57039L8.80296 10.0791ZM13.6786 6.97798L17.4911 9.01677C17.8658 9.21568 18.1 9.59541 18.1 10.0023C18.1 10.4091 17.8658 10.7888 17.4911 10.9878L13.5756 13.0808L10.4563 10.0791C10.4516 10.0791 13.6786 6.97798 13.6786 6.97798ZM1.35596 1.32722C1.42621 1.26393 1.50583 1.20517 1.59014 1.15544C1.95546 0.952011 2.40978 0.947491 2.77979 1.1464L12.6154 6.40838L9.62728 9.28348L1.35596 1.32722Z" fill="white"/>
</svg>
