<svg width="24" height="24" viewBox="0 0 24 24" fill="none" xmlns="http://www.w3.org/2000/svg">
<path d="M4.5 8.00004L15.08 2.94004C15.1999 2.88263 15.3301 2.84972 15.4629 2.84323C15.5957 2.83674 15.7285 2.85681 15.8535 2.90225C15.9784 2.94769 16.0931 3.01759 16.1907 3.10788C16.2883 3.19816 16.367 3.307 16.422 3.42804L18.5 8.00004M6 10V8M6 14V15M6 19V21M4 8H20C21.1046 8 22 8.89543 22 10V19C22 20.1046 21.1046 21 20 21H4C2.89543 21 2 20.1046 2 19V10C2 8.89543 2.89543 8 4 8Z" stroke="white" stroke-width="2" stroke-linecap="round" stroke-linejoin="round"/>
</svg>
