<svg width="80" height="24" viewBox="0 0 80 24" fill="none" xmlns="http://www.w3.org/2000/svg">
<g clip-path="url(#clip0_2708_16696)">
<mask id="mask0_2708_16696" style="mask-type:luminance" maskUnits="userSpaceOnUse" x="0" y="0" width="79" height="24">
<path d="M0.781326 0H78.1147V24H0.781326V0Z" fill="white"/>
</mask>
<g mask="url(#mask0_2708_16696)">
<path fill-rule="evenodd" clip-rule="evenodd" d="M56.224 6.22125C57.9733 6.22125 59.392 5.01192 59.392 3.51992C59.392 2.02658 57.9733 0.815918 56.224 0.815918C54.4773 0.815918 53.0587 2.02658 53.0587 3.51992C53.0587 5.01192 54.476 6.22125 56.224 6.22125ZM31.96 7.68125C31.8173 7.98792 30.788 10.4679 28.3 13.0386V2.04658L21.6693 3.16392V23.0893H28.3V16.9293C30.22 19.3893 31.168 23.0893 31.168 23.0893H39.1107C38.324 20.3026 34.888 15.1626 34.888 15.1626C37.972 11.8252 39.328 8.26925 39.5413 7.68125H31.96ZM49.3907 7.47325C43.452 7.63592 40.4373 9.90925 40.4373 14.4293V23.0893H46.9173V16.028C46.9173 13.3212 47.332 12.1613 51.0947 12.0506V7.55192C50.4627 7.43725 49.3907 7.47325 49.3907 7.47325ZM10.5507 9.87458C9.73733 9.82925 7.85733 9.72525 7.85733 8.28125C7.85733 6.53725 10.564 6.53725 11.58 6.53725C13.3653 6.53725 15.6773 6.98792 17.328 7.40925C17.328 7.40925 18.248 7.68658 19.0333 7.96925L19.1053 7.98658V3.21325L19.0053 3.18658C17.0573 2.60525 14.792 2.04658 10.5907 2.04658C3.34799 2.04658 0.781326 5.64658 0.781326 8.73192C0.781326 10.5106 1.67466 14.696 9.96933 15.1786C10.672 15.216 12.5387 15.308 12.5387 16.8C12.5387 18.0333 11.0107 18.76 8.44133 18.76C5.62533 18.76 2.89333 18.1466 1.23333 17.5653V22.4826C3.71733 23.0386 6.51733 23.316 9.79999 23.316C16.8813 23.316 20.0533 19.9093 20.0533 16.532C20.0533 12.7026 16.5053 10.2146 10.5507 9.87458ZM53.012 23.0893H59.4387V7.69858H53.012V23.0893ZM71.54 3.02792V23.0893H77.9667V2.04658L71.54 3.02792ZM62.1613 3.02792L68.5827 2.04658V23.0893H62.16L62.1613 3.02792Z" fill="#EFF1F3"/>
</g>
</g>
<defs>
<clipPath id="clip0_2708_16696">
<rect width="78.6667" height="24" fill="white" transform="translate(0.666656)"/>
</clipPath>
</defs>
</svg>
