<svg width="80" height="28" viewBox="0 0 80 28" fill="none" xmlns="http://www.w3.org/2000/svg">
<g clip-path="url(#clip0_3381_3083)">
<mask id="mask0_3381_3083" style="mask-type:luminance" maskUnits="userSpaceOnUse" x="0" y="5" width="59" height="18">
<path d="M0.486 5H58.486V23H0.486V5Z" fill="white"/>
</mask>
<g mask="url(#mask0_3381_3083)">
<path fill-rule="evenodd" clip-rule="evenodd" d="M42.068 9.66582C43.381 9.66582 44.444 8.75882 44.444 7.63982C44.444 6.51982 43.38 5.61182 42.068 5.61182C40.758 5.61182 39.694 6.51982 39.694 7.63982C39.694 8.75882 40.757 9.66582 42.068 9.66582ZM23.87 10.7608C23.763 10.9908 22.991 12.8508 21.125 14.7788V6.53482L16.152 7.37282V22.3168H21.125V17.6968C22.565 19.5418 23.276 22.3168 23.276 22.3168H29.233C28.643 20.2268 26.066 16.3718 26.066 16.3718C28.379 13.8688 29.396 11.2018 29.557 10.7608H23.87ZM36.943 10.6048C32.489 10.7268 30.228 12.4318 30.228 15.8218V22.3168H35.088V17.0208C35.088 14.9908 35.399 14.1208 38.222 14.0378V10.6638C37.747 10.5778 36.943 10.6048 36.943 10.6048ZM7.814 12.4058C7.204 12.3718 5.794 12.2938 5.794 11.2108C5.794 9.90282 7.824 9.90282 8.586 9.90282C9.925 9.90282 11.659 10.2408 12.897 10.5568C12.897 10.5568 13.587 10.7648 14.176 10.9768L14.23 10.9898V7.40982L14.155 7.38982C12.694 6.95382 10.995 6.53482 7.844 6.53482C2.412 6.53482 0.487 9.23482 0.487 11.5488C0.487 12.8828 1.157 16.0218 7.378 16.3838C7.905 16.4118 9.305 16.4808 9.305 17.5998C9.305 18.5248 8.159 19.0698 6.232 19.0698C4.12 19.0698 2.071 18.6098 0.825999 18.1738V21.8618C2.689 22.2788 4.79 22.4868 7.251 22.4868C12.563 22.4868 14.941 19.9318 14.941 17.3988C14.941 14.5268 12.28 12.6608 7.814 12.4058ZM39.66 22.3168H44.48V10.7738H39.66V22.3168ZM53.555 7.27082V22.3168H58.375V6.53482L53.555 7.27082ZM46.521 7.27082L51.337 6.53482V22.3168H46.521V7.27082Z" fill="#858DA0"/>
</g>
</g>
<defs>
<clipPath id="clip0_3381_3083">
<rect width="59" height="18" fill="white" transform="translate(0 5)"/>
</clipPath>
</defs>
</svg>
