<svg width="40" height="40" viewBox="0 0 40 40" fill="none" xmlns="http://www.w3.org/2000/svg">
<g clip-path="url(#clip0_3103_8685)">
<path d="M20 39.9998C31.0456 39.9998 39.9999 31.0456 39.9999 19.9999C39.9999 8.95427 31.0456 0 20 0C8.95434 0 6.86646e-05 8.95427 6.86646e-05 19.9999C6.86646e-05 31.0456 8.95434 39.9998 20 39.9998Z" fill="#EAEAE4"/>
<path d="M9.52367 20C9.52367 10.5858 16.0288 2.69223 24.7889 0.565435C23.2709 0.196841 21.6856 0.00012207 20.0542 0.00012207C9.00852 0.00012207 0.0542984 8.95434 0.0542984 20C0.0542984 31.0457 9.00852 40 20.0542 40C21.6856 40 23.2709 39.8032 24.7889 39.4347C16.0288 37.3078 9.52367 29.4143 9.52367 20Z" fill="#D6D6D2"/>
<path d="M39.949 18.5607C39.7473 15.7179 38.9509 13.0399 37.6841 10.6492L37.6837 10.6474V10.6482L36.2115 14.8497L27.9872 16.7072L20.6123 11.349V2.95301L21.258 2.48379L24.0976 0.420513C22.7752 0.144575 21.4045 0.00012207 20.0005 0.00012207C18.5964 0.00012207 17.2258 0.144575 15.9034 0.420513L19.3878 2.95247V11.3497L12.001 16.7164L3.73648 14.8498L2.28547 10.7078C1.04304 13.0718 0.260154 15.7151 0.054451 18.5183L3.33984 16.0155L11.5727 17.875L11.9191 18.9411L14.3974 26.5675L10.2629 33.9261L5.83562 34.1191C7.78586 36.0758 10.1393 37.6309 12.7597 38.6489L11.2632 34.6454L15.3577 27.3582H24.59L28.6846 34.6457L28.2005 35.9407L27.1793 38.6725C29.8242 37.6554 32.198 36.0921 34.163 34.1207L30.4074 33.9573L29.6848 33.9259L25.5842 26.6277L28.4328 17.8618L36.6087 16.0154L39.949 18.5607Z" fill="#455256"/>
<path d="M9.68523 17.4489L3.33992 16.0155L0.111404 18.475C0.117108 18.4016 0.122811 18.3281 0.129373 18.2546C0.355467 15.6399 1.08445 13.1698 2.21836 10.9404C2.24773 10.8833 2.27711 10.8261 2.30734 10.7698L3.73672 14.8498L9.87711 16.2367C9.80117 16.6367 9.73672 17.0408 9.68523 17.4489Z" fill="#2C373A"/>
<path d="M11.2632 34.6455L12.7505 38.6243C12.7269 38.6153 12.7032 38.6055 12.6795 38.5966C10.1587 37.5958 7.89016 36.0978 5.99383 34.2227C5.95789 34.1876 5.92195 34.1525 5.88773 34.1166L10.2632 33.9264L12.3375 30.2341C12.5742 30.6317 12.8248 31.0194 13.0877 31.3982L11.2632 34.6455Z" fill="#2C373A"/>
<path d="M24.108 0.413047L23.326 0.981172C21.8852 1.44977 20.5162 2.07828 19.2395 2.84484L15.9155 0.429375C15.9294 0.426094 15.9441 0.422812 15.9579 0.420391C17.2803 0.144453 18.6502 0 20.0542 0C21.4427 0 22.7987 0.142891 24.108 0.413047Z" fill="#2C373A"/>
</g>
<defs>
<clipPath id="clip0_3103_8685">
<rect width="40" height="40" fill="white"/>
</clipPath>
</defs>
</svg>
