<svg width="50" height="50" viewBox="0 0 50 50" fill="none" xmlns="http://www.w3.org/2000/svg">
<g clip-path="url(#clip0_3364_8099)">
<path d="M25 49.9998C38.807 49.9998 49.9999 38.807 49.9999 24.9999C49.9999 11.1928 38.807 0 25 0C11.1929 0 6.86646e-05 11.1928 6.86646e-05 24.9999C6.86646e-05 38.807 11.1929 49.9998 25 49.9998Z" fill="#EAEAE4"/>
<path d="M11.9046 24.9999C11.9046 13.2321 20.0359 3.36514 30.9861 0.706641C29.0886 0.245898 27.107 0 25.0678 0C11.2606 0 0.0678711 11.1928 0.0678711 24.9999C0.0678711 38.807 11.2606 49.9998 25.0678 49.9998C27.107 49.9998 29.0886 49.7539 30.9861 49.2932C20.0359 46.6346 11.9046 36.7677 11.9046 24.9999Z" fill="#D6D6D2"/>
<path d="M49.9362 23.2008C49.6842 19.6473 48.6886 16.2997 47.1052 13.3113L47.1046 13.3091V13.3101L45.2644 18.5619L34.984 20.8838L25.7653 14.1861V3.69111L26.5726 3.10459L30.122 0.525488C28.469 0.180566 26.7557 0 25.0006 0C23.2455 0 21.5322 0.180566 19.8792 0.525488L24.2348 3.69043V14.1869L15.0013 20.8953L4.67061 18.5621L2.85684 13.3846C1.30381 16.3396 0.325198 19.6437 0.0680695 23.1478L4.17481 20.0192L14.4658 22.3436L14.8989 23.6762L17.9968 33.2093L12.8286 42.4074L7.29453 42.6487C9.73233 45.0946 12.6741 47.0385 15.9496 48.3109L14.079 43.3066L19.1971 34.1977H30.7375L35.8558 43.307L35.2507 44.9257L33.9741 48.3404C37.2803 47.069 40.2476 45.1149 42.7037 42.6507L38.0093 42.4465L37.106 42.4072L31.9803 33.2845L35.541 22.3271L45.7609 20.019L49.9362 23.2008Z" fill="#455256"/>
<path d="M12.1065 21.8113L4.1749 20.0195L0.139259 23.0939C0.146388 23.0021 0.153517 22.9103 0.16172 22.8185C0.444337 19.5501 1.35557 16.4624 2.77295 13.6757C2.80967 13.6043 2.84639 13.5328 2.88418 13.4624L4.6709 18.5624L12.3464 20.2961C12.2515 20.796 12.1709 21.3012 12.1065 21.8113Z" fill="#2C373A"/>
<path d="M14.079 43.3067L15.9382 48.2802C15.9086 48.2689 15.879 48.2567 15.8494 48.2455C12.6984 46.9945 9.8627 45.1221 7.49229 42.7782C7.44737 42.7344 7.40245 42.6904 7.35967 42.6456L12.829 42.4078L15.4219 37.7925C15.7178 38.2895 16.0311 38.7741 16.3597 39.2476L14.079 43.3067Z" fill="#2C373A"/>
<path d="M30.1351 0.516309L29.1575 1.22646C27.3565 1.81221 25.6453 2.59785 24.0494 3.55605L19.8943 0.536719C19.9117 0.532617 19.9301 0.528516 19.9474 0.525488C21.6004 0.180566 23.3127 0 25.0678 0C26.8034 0 28.4983 0.178613 30.1351 0.516309Z" fill="#2C373A"/>
</g>
<defs>
<clipPath id="clip0_3364_8099">
<rect width="50" height="50" fill="white"/>
</clipPath>
</defs>
</svg>
