<svg width="32" height="32" viewBox="0 0 32 32" fill="none" xmlns="http://www.w3.org/2000/svg">
<circle cx="16" cy="16" r="16" fill="#363E56"/>
<path fill-rule="evenodd" clip-rule="evenodd" d="M7 16C7 12.4049 7 10.6073 7.85669 9.31255C8.23925 8.73439 8.73439 8.23925 9.31255 7.85669C10.6073 7 12.4049 7 16 7C19.5951 7 21.3927 7 22.6874 7.85669C23.2656 8.23925 23.7608 8.73439 24.1433 9.31255C25 10.6073 25 12.4049 25 16C25 19.5951 25 21.3927 24.1433 22.6874C23.7608 23.2656 23.2656 23.7608 22.6874 24.1433C21.3927 25 19.5951 25 16 25C12.4049 25 10.6073 25 9.31255 24.1433C8.73439 23.7608 8.23925 23.2656 7.85669 22.6874C7 21.3927 7 19.5951 7 16ZM20.6596 16.0003C20.6596 18.5736 18.5735 20.6597 16.0002 20.6597C13.4269 20.6597 11.3408 18.5736 11.3408 16.0003C11.3408 13.427 13.4269 11.3409 16.0002 11.3409C18.5735 11.3409 20.6596 13.427 20.6596 16.0003ZM16.0002 19.0833C17.7029 19.0833 19.0832 17.703 19.0832 16.0003C19.0832 14.2976 17.7029 12.9173 16.0002 12.9173C14.2975 12.9173 12.9172 14.2976 12.9172 16.0003C12.9172 17.703 14.2975 19.0833 16.0002 19.0833ZM20.8436 12.2016C21.4483 12.2016 21.9385 11.7114 21.9385 11.1068C21.9385 10.5021 21.4483 10.012 20.8436 10.012C20.239 10.012 19.7488 10.5021 19.7488 11.1068C19.7488 11.7114 20.239 12.2016 20.8436 12.2016Z" fill="white"/>
</svg>
