<svg width="32" height="32" viewBox="0 0 32 32" fill="none" xmlns="http://www.w3.org/2000/svg">
<circle cx="16" cy="16" r="16" fill="#363E56"/>
<path d="M7.00002 8.99134C7.00002 8.41413 7.20272 7.93794 7.60812 7.56277C8.01352 7.18758 8.54056 7 9.1892 7C9.82628 7 10.3417 7.18469 10.7355 7.55411C11.1409 7.93506 11.3436 8.43145 11.3436 9.04329C11.3436 9.5974 11.1467 10.0592 10.7529 10.4286C10.3475 10.8095 9.81469 11 9.15446 11H9.13708C8.50001 11 7.98458 10.8095 7.59075 10.4286C7.19692 10.0476 7.00002 9.56854 7.00002 8.99134ZM7.22588 24.1429V12.5758H11.083V24.1429H7.22588ZM13.2201 24.1429H17.0772V17.684C17.0772 17.2799 17.1236 16.9682 17.2162 16.7489C17.3784 16.3564 17.6245 16.0245 17.9546 15.7532C18.2848 15.482 18.6989 15.3463 19.1969 15.3463C20.4942 15.3463 21.1429 16.2179 21.1429 17.961V24.1429H25V17.5108C25 15.8023 24.5946 14.5065 23.7838 13.6234C22.973 12.7403 21.9016 12.2987 20.5695 12.2987C19.0753 12.2987 17.9112 12.9394 17.0772 14.2208V14.2554H17.0599L17.0772 14.2208V12.5758H13.2201C13.2433 12.9452 13.2548 14.0938 13.2548 16.0216C13.2548 17.9495 13.2433 20.6565 13.2201 24.1429Z" fill="white"/>
</svg>
