<svg width="40" height="40" viewBox="0 0 40 40" fill="none" xmlns="http://www.w3.org/2000/svg">
<g clip-path="url(#clip0_3103_1328)">
<path d="M19.998 39.9962C31.0427 39.9962 39.9961 31.0428 39.9961 19.9982C39.9961 8.95355 31.0427 0.00012207 19.998 0.00012207C8.95343 0.00012207 0 8.95355 0 19.9982C0 31.0428 8.95343 39.9962 19.998 39.9962Z" fill="#94E061"/>
<path d="M14.3412 39.1783C13.0791 38.8072 11.854 38.3114 10.6853 37.6973C12.0504 33.7484 12.2468 28.9076 9.61554 24.6859C7.35056 21.0525 3.65121 18.9115 0.100708 17.9721C0.227908 16.739 0.468556 15.522 0.818669 14.3372C5.72376 15.0551 10.5323 18.3939 13.3728 23.6258C16.2053 28.8433 16.3921 34.678 14.3412 39.1783Z" fill="#E9EFF4"/>
<path d="M29.5394 37.5733C20.6169 42.4172 9.6372 39.7691 3.82983 31.7699C9.94793 37.2143 19.0579 38.5343 26.6699 34.402C36.3763 29.1322 39.9726 16.9918 34.7029 7.28543C34.2771 6.50145 33.807 5.7577 33.2959 5.05505C34.979 6.55215 36.4358 8.36241 37.5732 10.4568C42.8429 20.1632 39.2458 32.3036 29.5394 37.5733Z" fill="#70CF3D"/>
<path d="M15.2012 36.7333C14.983 37.5817 14.6957 38.3995 14.3407 39.1779C14.2618 39.1545 14.1829 39.1312 14.1049 39.1071C13.4491 38.9043 12.8031 38.6691 12.1704 38.4009C12.0616 38.3547 10.6732 37.7308 10.6848 37.6969C10.8828 37.1238 11.0566 36.5314 11.1999 35.9253C12.5008 36.3293 13.8417 36.6005 15.2012 36.7333Z" fill="#D3DCE2"/>
<path d="M39.9066 21.9017C39.7907 23.1115 39.5646 24.306 39.2321 25.4699C34.4381 24.6569 29.7736 21.3503 26.9943 16.2304C24.2077 11.0975 23.9807 5.36817 25.9278 0.899292C27.1038 1.26472 28.2459 1.73719 29.339 2.31349C28.1928 5.77055 27.9577 9.98588 29.7165 13.8381C31.7706 18.34 35.8813 20.8481 39.9066 21.9017Z" fill="#E9EFF4"/>
<path d="M39.9062 21.9014C39.8614 22.3694 39.8011 22.8173 39.7259 23.2802C39.6976 23.4543 39.2661 25.4754 39.2317 25.4695C38.0179 25.2635 36.8122 24.8981 35.6435 24.3829C36.1216 23.2093 36.4878 21.9931 36.7373 20.7511C37.7732 21.2429 38.8429 21.6228 39.9062 21.9014Z" fill="#D3DCE2"/>
<path d="M39.9062 21.9013C39.8917 22.0527 39.8756 22.2032 39.858 22.3537C39.8491 22.4294 39.8394 22.5043 39.8297 22.5799C39.8193 22.6548 39.8096 22.7304 39.7983 22.8052C39.7895 22.8696 39.7798 22.934 39.7702 22.9985C39.7565 23.0926 39.7412 23.186 39.7259 23.2802C39.7098 23.3728 39.6937 23.4662 39.6768 23.5587C39.672 23.5852 39.6672 23.6118 39.6623 23.6384C39.6446 23.7342 39.6261 23.83 39.6068 23.9258C39.6068 23.9265 39.6068 23.9274 39.606 23.9282C39.5859 24.0296 39.565 24.1302 39.5424 24.2309C39.5295 24.2936 39.515 24.3564 39.5005 24.4192C39.4876 24.4764 39.4747 24.5335 39.461 24.5907C39.4442 24.6647 39.4256 24.7388 39.4071 24.812C39.3886 24.8853 39.3701 24.9585 39.3508 25.0318C39.313 25.1783 39.2735 25.324 39.2316 25.4697C38.0179 25.2636 36.8121 24.8982 35.6434 24.383C36.1215 23.2094 36.4878 21.9932 36.7373 20.7512C37.7732 21.2429 38.8429 21.6228 39.9062 21.9013Z" fill="#D3DCE2"/>
</g>
<defs>
<clipPath id="clip0_3103_1328">
<rect width="40" height="40" fill="white"/>
</clipPath>
</defs>
</svg>
