<svg width="50" height="50" viewBox="0 0 50 50" fill="none" xmlns="http://www.w3.org/2000/svg">
<g clip-path="url(#clip0_3364_1624)">
<path d="M49.1477 18.5526L48.6815 17.0086C46.7734 11.3436 43.0107 6.79119 38.2805 3.82694L36.8785 3.01014C31.4483 0.0771384 24.9396 -0.856551 18.5526 0.852723L17.0093 1.31864C13.9214 2.35848 11.1641 3.9494 8.81433 5.94773C1.47343 12.1904 -0.716802 22.2495 2.24618 32.0642C6.23543 45.2786 18.6215 52.3783 31.836 48.3891C36.599 46.9512 41.0041 44.7578 44.0083 41.2333C45.1884 39.8487 46.2121 38.3419 47.0632 36.743L47.7879 35.2669C50.0799 30.1851 50.691 24.3192 49.1477 18.5526Z" fill="#FFA95F"/>
<path d="M35.0452 46.1055C21.8307 50.0947 7.88429 42.6163 3.89503 29.4019C1.34376 20.9508 3.48429 12.2016 8.81437 5.94775C6.38038 8.01748 4.3836 10.5244 2.90987 13.3087L2.19083 14.7812C-0.0836808 19.852 -0.68622 25.6992 0.852354 31.448L1.31847 32.9921C3.22179 38.6431 6.97032 43.1867 11.6839 46.1512L13.0851 46.9705C18.5239 49.9196 25.0494 50.8607 31.4523 49.1457L32.9952 48.6797C37.4214 47.1882 41.1679 44.5662 44.0084 41.2334C41.4657 43.3956 38.4446 45.0792 35.0452 46.1055Z" fill="#FF8B5A"/>
<path d="M37.5997 22.0394L49.147 18.5532C49.0776 18.2939 49.0051 18.0364 48.927 17.7776C48.8487 17.5187 48.7666 17.2638 48.6808 17.0093L37.1334 20.4954C35.6495 14.9608 36.0535 9.10186 38.2802 3.82783C37.8214 3.54033 37.3547 3.26777 36.8785 3.01055C34.4327 8.68125 33.9789 14.9973 35.5901 20.9613L25.541 23.995L18.5527 0.853516C18.2933 0.922852 18.0358 0.995801 17.7769 1.07393C17.5183 1.15195 17.2637 1.23369 17.0095 1.31934L23.9978 24.4608L13.9547 27.4927C12.153 22.1151 8.7255 17.4628 4.15099 14.1549L3.33868 14.7835L3.65099 15.8089C7.71437 18.8834 10.7725 23.1001 12.4113 27.9587L4.22941 30.4286L3.95519 31.4786L4.80997 31.938L12.878 29.5023C14.0083 33.7147 14.0349 38.1126 12.9867 42.2938L13.5498 43.2502L14.3989 43.2615C15.6695 38.629 15.6886 33.7237 14.4213 29.0363L24.464 26.0046L30.8036 46.9979L31.6651 47.5958L32.4123 46.7488L26.0072 25.5387L36.0563 22.505C38.0152 28.3649 41.8874 33.3736 47.0632 36.7431C47.3205 36.2595 47.5625 35.7665 47.7879 35.267C43.017 32.1067 39.4264 27.4696 37.5997 22.0394Z" fill="#785353"/>
<path d="M2.19043 14.7811C2.69385 15.11 3.17451 15.4475 3.65098 15.8086C3.79766 15.2536 3.96709 14.6968 4.15098 14.1546C3.74189 13.8583 3.33691 13.5829 2.90977 13.3086C2.6541 13.7918 2.41426 14.282 2.19043 14.7811Z" fill="#6E4848"/>
<path d="M1.31877 32.9918L4.80999 31.9376C4.60139 31.444 4.40813 30.9406 4.22932 30.4282L0.852661 31.4479C0.922095 31.7073 0.995044 31.9646 1.07327 32.2235C1.15139 32.4824 1.23303 32.7374 1.31877 32.9918Z" fill="#6E4848"/>
<path d="M32.4123 46.7485C31.8753 46.8496 31.34 46.9325 30.8036 46.9976L31.4523 49.1455C31.71 49.0766 31.9661 49.0048 32.2233 48.9271C32.4836 48.8485 32.7394 48.7657 32.9953 48.6795L32.4123 46.7485Z" fill="#6E4848"/>
<path d="M12.9868 42.2935C12.6585 43.6035 12.2223 44.896 11.684 46.151C12.1424 46.4393 12.6094 46.7123 13.0851 46.9703C13.616 45.7585 14.0533 44.5233 14.3991 43.2612C13.9178 42.955 13.4466 42.6322 12.9868 42.2935Z" fill="#6E4848"/>
</g>
<defs>
<clipPath id="clip0_3364_1624">
<rect width="50" height="50" fill="white"/>
</clipPath>
</defs>
</svg>
