<svg width="80" height="28" viewBox="0 0 80 28" fill="none" xmlns="http://www.w3.org/2000/svg">
<path fill-rule="evenodd" clip-rule="evenodd" d="M16.237 14.1678C16.237 16.1606 15.4453 18.0719 14.0362 19.481C12.6271 20.8902 10.7158 21.6818 8.723 21.6818C6.73016 21.6818 4.81895 20.8902 3.4098 19.481C2.00065 18.0719 1.209 16.1606 1.209 14.1678C1.209 12.175 2.00065 10.2638 3.4098 8.85461C4.81895 7.44546 6.73016 6.65381 8.723 6.65381C10.7158 6.65381 12.6271 7.44546 14.0362 8.85461C15.4453 10.2638 16.237 12.175 16.237 14.1678ZM9.524 14.8608V14.8628C11.354 14.7808 12.721 14.4618 12.721 14.0798C12.721 13.6978 11.356 13.3798 9.524 13.2968V14.5438C9.471 14.5488 9.186 14.5728 8.616 14.5728C8.141 14.5728 7.796 14.5528 7.677 14.5438V13.2958C5.843 13.3768 4.473 13.6968 4.473 14.0788C4.473 14.4618 5.843 14.7808 7.677 14.8618V14.8598C7.796 14.8658 8.13 14.8788 8.607 14.8788C9.204 14.8788 9.472 14.8628 9.524 14.8588V14.8608ZM9.524 12.0508V13.1678L9.526 13.1688C11.598 13.2648 13.156 13.6768 13.156 14.1688C13.156 14.6608 11.598 15.0718 9.526 15.1668V18.7458H7.678V15.1668C5.603 15.0708 4.041 14.6598 4.041 14.1668C4.041 13.6738 5.601 13.2638 7.678 13.1678V12.0518H5.123V10.3498H12.079V12.0518L9.524 12.0508Z" fill="#858DA0"/>
<path d="M22.62 10.8147V12.6197H24.374V13.9737H22.608V16.7197C22.608 17.3257 22.942 17.6217 23.433 17.6217C23.678 17.6217 23.962 17.5447 24.193 17.4287L24.633 18.7687C24.182 18.9487 23.807 19.0267 23.33 19.0397C21.95 19.0917 21.048 18.3057 21.048 16.7197V13.9737H19.862V12.6197H21.048V10.9827L22.62 10.8147ZM52.861 12.5347L52.977 13.2697C53.467 12.4827 54.125 12.3667 54.77 12.3667C55.427 12.3667 56.059 12.6237 56.407 12.9717L55.697 14.3387C55.375 14.0687 55.079 13.9257 54.563 13.9257C53.738 13.9257 52.977 14.3637 52.977 15.5367V18.8887H51.404V12.5337L52.861 12.5347ZM49.006 14.9717C48.903 14.1467 48.258 13.7327 47.356 13.7327C46.506 13.7327 45.808 14.1467 45.576 14.9717H49.006ZM45.551 16.2737C45.654 17.0607 46.337 17.6277 47.446 17.6277C48.026 17.6277 48.788 17.4077 49.149 17.0347L50.154 18.0277C49.484 18.7237 48.388 19.0597 47.42 19.0597C45.228 19.0597 43.925 17.7057 43.925 15.6687C43.925 13.7347 45.241 12.3417 47.304 12.3417C49.431 12.3417 50.76 13.6567 50.515 16.2737H45.551ZM38.614 9.86475V13.3977C39.182 12.6627 39.878 12.4427 40.6 12.4427C42.405 12.4427 43.205 13.6677 43.205 15.5377V18.8907H41.632V15.5507C41.632 14.3907 41.026 13.9007 40.187 13.9007C39.258 13.9007 38.614 14.6877 38.614 15.6417V18.8917H37.042V9.86675L38.614 9.86475ZM34.437 10.7417V12.5467H36.191V13.9007H34.425V16.6467C34.425 17.2537 34.761 17.5497 35.25 17.5497C35.495 17.5497 35.78 17.4717 36.011 17.3557L36.45 18.6967C35.999 18.8767 35.624 18.9547 35.147 18.9677C33.767 19.0197 32.865 18.2317 32.865 16.6477V13.8997H31.68V12.5467H32.866V10.9097L34.437 10.7417ZM30.092 14.9717C29.989 14.1467 29.344 13.7327 28.442 13.7327C27.591 13.7327 26.894 14.1467 26.662 14.9717H30.092ZM26.637 16.2737C26.739 17.0607 27.423 17.6277 28.532 17.6277C29.112 17.6277 29.873 17.4077 30.234 17.0347L31.239 18.0277C30.569 18.7237 29.473 19.0597 28.505 19.0597C26.313 19.0597 25.011 17.7057 25.011 15.6687C25.011 13.7347 26.326 12.3417 28.388 12.3417C30.516 12.3417 31.843 13.6567 31.599 16.2737H26.637Z" fill="#858DA0"/>
<path d="M22.62 10.8147V12.6197H24.374V13.9737H22.608V16.7197C22.608 17.3257 22.942 17.6217 23.433 17.6217C23.678 17.6217 23.962 17.5447 24.193 17.4287L24.633 18.7687C24.182 18.9487 23.807 19.0267 23.33 19.0397C21.95 19.0917 21.048 18.3057 21.048 16.7197V13.9737H19.862V12.6197H21.048V10.9827L22.62 10.8147ZM52.861 12.5347L52.977 13.2697C53.467 12.4827 54.125 12.3667 54.77 12.3667C55.427 12.3667 56.059 12.6237 56.407 12.9717L55.697 14.3387C55.375 14.0687 55.079 13.9257 54.563 13.9257C53.738 13.9257 52.977 14.3637 52.977 15.5367V18.8887H51.404V12.5337L52.861 12.5347ZM49.006 14.9717C48.903 14.1467 48.258 13.7327 47.356 13.7327C46.506 13.7327 45.808 14.1467 45.576 14.9717H49.006ZM45.551 16.2737C45.654 17.0607 46.337 17.6277 47.446 17.6277C48.026 17.6277 48.788 17.4077 49.149 17.0347L50.154 18.0277C49.484 18.7237 48.388 19.0597 47.42 19.0597C45.228 19.0597 43.925 17.7057 43.925 15.6687C43.925 13.7347 45.241 12.3417 47.304 12.3417C49.431 12.3417 50.76 13.6567 50.515 16.2737H45.551ZM38.614 9.86475V13.3977C39.182 12.6627 39.878 12.4427 40.6 12.4427C42.405 12.4427 43.205 13.6677 43.205 15.5377V18.8907H41.632V15.5507C41.632 14.3907 41.026 13.9007 40.187 13.9007C39.258 13.9007 38.614 14.6877 38.614 15.6417V18.8917H37.042V9.86675L38.614 9.86475ZM34.437 10.7417V12.5467H36.191V13.9007H34.425V16.6467C34.425 17.2537 34.761 17.5497 35.25 17.5497C35.495 17.5497 35.78 17.4717 36.011 17.3557L36.45 18.6967C35.999 18.8767 35.624 18.9547 35.147 18.9677C33.767 19.0197 32.865 18.2317 32.865 16.6477V13.8997H31.68V12.5467H32.866V10.9097L34.437 10.7417ZM30.092 14.9717C29.989 14.1467 29.344 13.7327 28.442 13.7327C27.591 13.7327 26.894 14.1467 26.662 14.9717H30.092ZM26.637 16.2737C26.739 17.0607 27.423 17.6277 28.532 17.6277C29.112 17.6277 29.873 17.4077 30.234 17.0347L31.239 18.0277C30.569 18.7237 29.473 19.0597 28.505 19.0597C26.313 19.0597 25.011 17.7057 25.011 15.6687C25.011 13.7347 26.326 12.3417 28.388 12.3417C30.516 12.3417 31.843 13.6567 31.599 16.2737H26.637Z" fill="#858DA0"/>
</svg>
