<svg width="72" height="24" viewBox="0 0 72 24" fill="none" xmlns="http://www.w3.org/2000/svg">
<mask id="mask0_2708_16694" style="mask-type:luminance" maskUnits="userSpaceOnUse" x="0" y="0" width="72" height="24">
<path d="M72 0H0V24H72V0Z" fill="white"/>
</mask>
<g mask="url(#mask0_2708_16694)">
<path fill-rule="evenodd" clip-rule="evenodd" d="M71.3159 22.335H71.4546L71.3786 21.9657L71.2773 21.4777C71.0186 20.235 70.7573 18.9937 70.4973 17.751L69.7186 14.023C69.4946 12.959 69.2733 11.891 69.0519 10.8244L68.3826 7.6257L66.9026 0.519038C66.8786 0.419038 66.8479 0.380371 66.7399 0.380371H62.0559C61.9239 0.380371 61.7853 0.388371 61.6546 0.411038C60.6586 0.573704 59.9799 1.12837 59.5933 2.05504L55.3773 12.1244L51.1599 22.195C51.1442 22.2425 51.1263 22.2892 51.1066 22.335H56.9213C57.0146 22.335 57.0546 22.303 57.0853 22.219C57.4546 21.2004 57.8253 20.1817 58.1879 19.163C58.2106 19.0857 58.2493 19.055 58.3346 19.055H65.4026C65.4959 19.055 65.5346 19.0857 65.5493 19.171L65.8293 20.5017C65.9479 21.0657 66.0666 21.631 66.1826 22.195C66.2053 22.311 66.2519 22.335 66.3599 22.335H71.3159ZM62.8799 6.3457C63.4506 9.07637 64.0226 11.8084 64.5933 14.5644C63.0106 14.5644 61.4453 14.5644 59.8626 14.571C60.8586 11.8164 61.8453 9.08437 62.8413 6.34437L62.8799 6.3457Z" fill="#EFF1F3"/>
<path d="M1.16264 1.01238C1.2093 0.796383 1.24797 0.596385 1.2933 0.388383H10.8706C12.236 0.388383 13.2853 1.23638 13.556 2.57105C13.8187 3.91372 14.0653 5.25772 14.32 6.60038C14.5893 8.05105 14.8667 9.50172 15.1373 10.9524C15.4 12.3644 15.6707 13.7764 15.932 15.1804L15.964 15.335C16.056 15.095 16.1413 14.887 16.2253 14.679C18.092 9.96438 19.9533 5.24972 21.812 0.541718C21.8587 0.427051 21.9133 0.388383 22.036 0.388383C23.912 0.39505 25.7867 0.388383 27.6627 0.39505H27.824C27.8013 0.448383 27.7933 0.488385 27.7773 0.527051C24.7453 7.76438 21.712 14.995 18.68 22.2337C18.6493 22.319 18.6107 22.3577 18.5173 22.3497H12.7466C12.708 22.3497 12.6773 22.3497 12.6306 22.3417C12.5 21.8244 12.3613 21.315 12.2306 20.799L8.63997 6.90838L7.9693 4.35372C7.79063 3.69772 7.3973 3.23505 6.80397 2.91905C5.90994 2.45136 4.97153 2.07393 4.00263 1.79238C3.09197 1.52172 2.1653 1.29905 1.25597 1.05105C1.23064 1.02838 1.2013 1.02038 1.16264 1.01238ZM51.4213 5.59638C50.8132 5.32165 50.1835 5.09734 49.5387 4.92572C48.5325 4.65742 47.4927 4.53749 46.452 4.56972C45.7587 4.59372 45.0787 4.70172 44.4533 5.03372C44.044 5.24972 43.7053 5.53505 43.528 5.97505C43.312 6.49905 43.42 6.96172 43.7747 7.38705C44.0987 7.77372 44.516 8.05772 44.948 8.29772C45.7427 8.74438 46.5453 9.16172 47.348 9.60172C48.2427 10.095 49.0987 10.651 49.8173 11.3924C50.588 12.179 51.1053 13.0977 51.2907 14.1924C51.384 14.7564 51.3907 15.3204 51.3293 15.891C51.2455 16.8117 50.9723 17.705 50.5267 18.515C49.84 19.7417 48.844 20.6364 47.6253 21.3084C46.5907 21.879 45.48 22.2257 44.3147 22.4417C43.2573 22.635 42.1933 22.7124 41.12 22.6817C39.4067 22.6284 37.7253 22.3964 36.0893 21.871C35.78 21.771 35.4867 21.655 35.1693 21.539C35.5173 19.9337 35.8573 18.3364 36.196 16.7324C36.2587 16.755 36.3053 16.7777 36.3507 16.8017C37.1613 17.1884 37.9787 17.535 38.8507 17.7577C39.5653 17.9441 40.2971 18.0581 41.0347 18.0977C41.6067 18.1284 42.1693 18.1444 42.7333 18.067C43.4813 17.967 44.192 17.7737 44.7867 17.2804C45.364 16.8084 45.58 16.0764 45.3493 15.4204C45.2413 15.1317 45.0636 14.8744 44.832 14.671C44.4263 14.3022 43.9717 13.9909 43.4813 13.7457C42.8173 13.391 42.1387 13.059 41.4747 12.6964C40.5107 12.171 39.6147 11.539 38.8747 10.7124C38.2187 9.97905 37.7547 9.14572 37.5853 8.17372C37.432 7.30172 37.508 6.43772 37.732 5.58838C38.1413 4.08438 39.0293 2.90305 40.264 1.98572C41.3973 1.14438 42.6787 0.627051 44.052 0.319051C45.2779 0.052546 46.5339 -0.0492405 47.7867 0.0163841C49.3307 0.0857175 50.8267 0.409717 52.2787 0.92705C52.3787 0.965717 52.3947 0.996383 52.3787 1.10438C52.0627 2.57105 51.7467 4.03772 51.4373 5.50305C51.4453 5.51772 51.4373 5.54838 51.4213 5.59638ZM25.6013 22.327L25.8333 21.223C26.28 19.139 26.72 17.063 27.168 14.9804C27.6227 12.8657 28.0707 10.7444 28.5267 8.62972L29.892 2.26972C30.016 1.68305 30.1387 1.09772 30.2707 0.511051C30.2853 0.441718 30.2933 0.380385 30.4013 0.380385C32.2227 0.388385 34.044 0.380385 35.8653 0.380385H35.9587C35.922 0.579221 35.8803 0.777066 35.8333 0.973718C35.1 4.40838 34.3667 7.84972 33.6267 11.2844C32.9013 14.6644 32.176 18.0444 31.4587 21.423C31.3973 21.7017 31.3427 21.9724 31.2813 22.2497C31.2653 22.311 31.2413 22.335 31.1813 22.335H25.656C25.64 22.3417 25.6227 22.335 25.6013 22.327Z" fill="#EFF1F3"/>
</g>
</svg>
