<svg width="80" height="28" viewBox="0 0 80 28" fill="none" xmlns="http://www.w3.org/2000/svg">
<g clip-path="url(#clip0_3364_1991)">
<path fill-rule="evenodd" clip-rule="evenodd" d="M53.487 21.7521H53.591L53.534 21.4751L53.458 21.1091C53.264 20.1771 53.068 19.2461 52.873 18.3141L52.289 15.5181C52.121 14.7201 51.955 13.9191 51.789 13.1191L51.287 10.7201L50.177 5.39013C50.159 5.31513 50.136 5.28613 50.055 5.28613H46.542C46.443 5.28613 46.339 5.29213 46.241 5.30913C45.494 5.43113 44.985 5.84713 44.695 6.54213L41.533 14.0941L38.37 21.6471C38.3582 21.6827 38.3449 21.7177 38.33 21.7521H42.691C42.761 21.7521 42.791 21.7281 42.814 21.6651C43.091 20.9011 43.369 20.1371 43.641 19.3731C43.658 19.3151 43.687 19.2921 43.751 19.2921H49.052C49.122 19.2921 49.151 19.3151 49.162 19.3791L49.372 20.3771C49.461 20.8001 49.55 21.2241 49.637 21.6471C49.654 21.7341 49.689 21.7521 49.77 21.7521H53.487ZM47.16 9.76013C47.588 11.8081 48.017 13.8571 48.445 15.9241C47.258 15.9241 46.084 15.9241 44.897 15.9291C45.644 13.8631 46.384 11.8141 47.131 9.75913H47.16V9.76013Z" fill="#858DA0"/>
<path d="M0.872002 5.76002C0.907002 5.59802 0.936002 5.44802 0.970002 5.29202H8.153C9.177 5.29202 9.964 5.92802 10.167 6.92902C10.364 7.93602 10.549 8.94402 10.74 9.95102C10.942 11.039 11.15 12.127 11.353 13.215C11.55 14.274 11.753 15.333 11.949 16.386L11.973 16.502C12.042 16.322 12.106 16.166 12.169 16.01C13.569 12.474 14.965 8.93802 16.359 5.40702C16.394 5.32102 16.435 5.29202 16.527 5.29202C17.934 5.29702 19.34 5.29202 20.747 5.29702H20.868C20.851 5.33702 20.845 5.36702 20.833 5.39602C18.559 10.824 16.284 16.247 14.01 21.676C13.987 21.74 13.958 21.769 13.888 21.763H9.56C9.531 21.763 9.508 21.763 9.473 21.757C9.375 21.369 9.271 20.987 9.173 20.6L6.48 10.182L5.977 8.26602C5.843 7.77402 5.548 7.42702 5.103 7.19002C4.43248 6.83925 3.72867 6.55618 3.002 6.34502C2.319 6.14202 1.624 5.97502 0.942002 5.78902C0.923002 5.77202 0.901002 5.76602 0.872002 5.76002ZM38.566 9.19802C38.1099 8.99197 37.6376 8.82374 37.154 8.69502C36.3994 8.4938 35.6196 8.40385 34.839 8.42802C34.319 8.44602 33.809 8.52702 33.34 8.77602C33.033 8.93802 32.779 9.15202 32.646 9.48202C32.484 9.87502 32.565 10.222 32.831 10.541C33.074 10.831 33.387 11.044 33.711 11.224C34.307 11.559 34.909 11.872 35.511 12.202C36.182 12.572 36.824 12.989 37.363 13.545C37.941 14.135 38.329 14.824 38.468 15.645C38.538 16.068 38.543 16.491 38.497 16.919C38.4341 17.6095 38.2292 18.2795 37.895 18.887C37.38 19.807 36.633 20.478 35.719 20.982C34.943 21.41 34.11 21.67 33.236 21.832C32.443 21.977 31.645 22.035 30.84 22.012C29.555 21.972 28.294 21.798 27.067 21.404C26.835 21.329 26.615 21.242 26.377 21.155C26.638 19.951 26.893 18.753 27.147 17.55C27.194 17.567 27.229 17.584 27.263 17.602C27.871 17.892 28.484 18.152 29.138 18.319C29.674 18.4588 30.2228 18.5443 30.776 18.574C31.205 18.597 31.627 18.609 32.05 18.551C32.611 18.476 33.144 18.331 33.59 17.961C34.023 17.607 34.185 17.058 34.012 16.566C33.931 16.3495 33.7977 16.1565 33.624 16.004C33.3197 15.7274 32.9788 15.4939 32.611 15.31C32.113 15.044 31.604 14.795 31.106 14.523C30.383 14.129 29.711 13.655 29.156 13.035C28.664 12.485 28.316 11.86 28.189 11.131C28.074 10.477 28.131 9.82902 28.299 9.19202C28.606 8.06402 29.272 7.17802 30.198 6.49002C31.048 5.85902 32.009 5.47102 33.039 5.24002C33.9584 5.04014 34.9004 4.9638 35.84 5.01302C36.998 5.06502 38.12 5.30802 39.209 5.69602C39.284 5.72502 39.296 5.74802 39.284 5.82902C39.047 6.92902 38.81 8.02902 38.578 9.12802C38.584 9.13902 38.578 9.16202 38.566 9.19802ZM19.201 21.746L19.375 20.918C19.71 19.355 20.04 17.798 20.376 16.236C20.717 14.65 21.053 13.059 21.395 11.473L22.419 6.70302C22.512 6.26302 22.604 5.82402 22.703 5.38402C22.714 5.33202 22.72 5.28602 22.801 5.28602C24.167 5.29202 25.533 5.28602 26.899 5.28602H26.969C26.9416 5.43515 26.9102 5.58353 26.875 5.73102C26.325 8.30702 25.775 10.888 25.22 13.464C24.676 15.999 24.132 18.534 23.594 21.068C23.548 21.277 23.507 21.48 23.461 21.688C23.449 21.734 23.431 21.752 23.386 21.752H19.242C19.23 21.757 19.217 21.752 19.201 21.746Z" fill="#858DA0"/>
</g>
<defs>
<clipPath id="clip0_3364_1991">
<rect width="54" height="18" fill="white" transform="translate(0 5)"/>
</clipPath>
</defs>
</svg>
