<svg width="50" height="50" viewBox="0 0 50 50" fill="none" xmlns="http://www.w3.org/2000/svg">
<g clip-path="url(#clip0_3364_1645)">
<path d="M24.9976 49.9951C38.8033 49.9951 49.9951 38.8033 49.9951 24.9976C49.9951 11.1918 38.8033 0 24.9976 0C11.1918 0 0 11.1918 0 24.9976C0 38.8033 11.1918 49.9951 24.9976 49.9951Z" fill="#94E061"/>
<path d="M17.9265 48.9728C16.3489 48.5089 14.8175 47.8892 13.3566 47.1215C15.063 42.1854 15.3085 36.1345 12.0195 30.8573C9.18823 26.3156 4.56404 23.6393 0.125916 22.4651C0.284915 20.9237 0.585726 19.4024 1.02337 17.9214C7.15473 18.8188 13.1654 22.9923 16.716 29.5322C20.2567 36.054 20.4901 43.3474 17.9265 48.9728Z" fill="#E9EFF4"/>
<path d="M36.9242 46.9667C25.7712 53.0216 12.0465 49.7114 4.78729 39.7124C12.4349 46.5179 23.8224 48.168 33.3373 43.0025C45.4704 36.4153 49.9657 21.2398 43.3786 9.10682C42.8464 8.12684 42.2587 7.19716 41.6199 6.31885C43.7237 8.19022 45.5448 10.453 46.9665 13.0711C53.5537 25.204 49.0572 40.3795 36.9242 46.9667Z" fill="#70CF3D"/>
<path d="M19.0015 45.9168C18.7288 46.9773 18.3697 47.9995 17.9259 48.9725C17.8272 48.9433 17.7287 48.9142 17.6311 48.884C16.8114 48.6304 16.0039 48.3365 15.213 48.0013C15.077 47.9436 13.3414 47.1636 13.356 47.1212C13.6035 46.4048 13.8208 45.6643 13.9999 44.9067C15.6259 45.4118 17.3022 45.7508 19.0015 45.9168Z" fill="#D3DCE2"/>
<path d="M49.8833 27.3771C49.7384 28.8893 49.4557 30.3824 49.0401 31.8373C43.0476 30.8211 37.217 26.6878 33.7428 20.2879C30.2596 13.8718 29.9759 6.71012 32.4097 1.12402C33.8797 1.58081 35.3074 2.17139 36.6737 2.89177C35.2409 7.21309 34.9472 12.4823 37.1456 17.2976C39.7133 22.9249 44.8516 26.06 49.8833 27.3771Z" fill="#E9EFF4"/>
<path d="M49.8828 27.3768C49.8267 27.9618 49.7513 28.5217 49.6574 29.1003C49.622 29.318 49.0826 31.8443 49.0396 31.837C47.5224 31.5795 46.0152 31.1227 44.5543 30.4787C45.1519 29.0117 45.6098 27.4915 45.9216 25.939C47.2165 26.5538 48.5536 27.0286 49.8828 27.3768Z" fill="#D3DCE2"/>
<path d="M49.8827 27.3766C49.8646 27.5658 49.8445 27.7539 49.8224 27.9421C49.8114 28.0366 49.7992 28.1303 49.7871 28.2248C49.774 28.3184 49.7619 28.4129 49.7479 28.5065C49.7368 28.587 49.7247 28.6675 49.7127 28.748C49.6956 28.8657 49.6765 28.9824 49.6573 29.1002C49.6372 29.2159 49.6171 29.3327 49.596 29.4483C49.5899 29.4815 49.5839 29.5147 49.5778 29.5479C49.5557 29.6676 49.5326 29.7874 49.5084 29.9071C49.5084 29.9081 49.5084 29.9092 49.5074 29.9102C49.4823 30.0369 49.4561 30.1627 49.4279 30.2885C49.4118 30.3669 49.3937 30.4455 49.3756 30.524C49.3595 30.5954 49.3433 30.6669 49.3262 30.7383C49.3052 30.8308 49.282 30.9234 49.2589 31.0149C49.2357 31.1066 49.2126 31.1981 49.1884 31.2897C49.1412 31.4728 49.0918 31.655 49.0395 31.837C47.5223 31.5795 46.0151 31.1227 44.5542 30.4787C45.1518 29.0117 45.6097 27.4915 45.9215 25.939C47.2165 26.5536 48.5536 27.0284 49.8827 27.3766Z" fill="#D3DCE2"/>
</g>
<defs>
<clipPath id="clip0_3364_1645">
<rect width="50" height="50" fill="white"/>
</clipPath>
</defs>
</svg>
